<?xml version="1.0" encoding="UTF-8" standalone="no"?>
<svg
   xmlns:dc="http://purl.org/dc/elements/1.1/"
   xmlns:cc="http://creativecommons.org/ns#"
   xmlns:rdf="http://www.w3.org/1999/02/22-rdf-syntax-ns#"
   xmlns:svg="http://www.w3.org/2000/svg"
   xmlns="http://www.w3.org/2000/svg"
   viewBox="0 0 571.72498 467.5"
   height="467.5"
   width="571.72498"
   xml:space="preserve"
   version="1.1"
   id="svg2"><metadata
     id="metadata8"><rdf:RDF><cc:Work
         rdf:about=""><dc:format>image/svg+xml</dc:format><dc:type
           rdf:resource="http://purl.org/dc/dcmitype/StillImage" /></cc:Work></rdf:RDF></metadata><defs
     id="defs6"><clipPath
       id="clipPath18"
       clipPathUnits="userSpaceOnUse"><path
         id="path20"
         d="m 0,0 4573.83,0 0,3740 L 0,3740 0,0 Z" /></clipPath></defs><g
     transform="matrix(1.25,0,0,-1.25,0,467.5)"
     id="g10"><g
       transform="scale(0.1,0.1)"
       id="g12"><g
         id="g14"><g
           clip-path="url(#clipPath18)"
           id="g16"><path
             id="path22"
             style="fill:#ffffff;fill-opacity:1;fill-rule:nonzero;stroke:none"
             d="m 0,0 4573.81,0 0,3740.01 L 0,3740.01 0,0 Z" /><path
             id="path24"
             style="fill:#b9e7e9;fill-opacity:1;fill-rule:nonzero;stroke:none"
             d="m 4573.83,121.699 c -25.14,-22.8904 -40.72,-50.7771 -42.91,-86.1677 -0.24,-3.8711 -1.08,-8.0118 -2.83,-11.4297 C 4523.98,16.1719 4521,8.12891 4518.73,0 l 55.1,0 0,121.699" /><path
             id="path26"
             style="fill:#b9e7e9;fill-opacity:1;fill-rule:nonzero;stroke:none"
             d="m 4235.21,81.2305 c 0.24,3.9101 -0.5,8.0703 -1.62,11.8398 -6.79,22.9097 -13.24,45.9497 -21.07,68.5117 -3.32,9.609 -8.79,18.887 -14.98,27.027 -12.56,16.512 -25.86,32.539 -39.73,47.95 -6.31,7.011 -14.12,13.23 -22.34,17.851 -31.56,17.699 -65.06,30.238 -101.33,34.11 -9.55,1.011 -18.98,1.378 -27.62,6.71 -2.97,1.84 -7.54,1.7 -11.32,1.532 -12.76,-0.614 -25.47,-1.621 -36.65,-2.383 -32.57,3.16 -61.91,-4.668 -90.62,-14.559 -28.67,-9.879 -56.99,-20.89 -85.06,-32.398 -16.25,-6.66 -31.78,-15.082 -44.22,-28.082 -17.13,-17.969 -36.7,-33.129 -55.72,-48.949 -14.86,-12.379 -26.41,-27.813 -35.06,-45.172 -8.51,-17.11 -17.34,-34.1487 -24.88,-51.6995 -5.29,-12.3711 -10.12,-25.3007 -12.5,-38.4804 C 3608.4,23.5 3607.23,11.7617 3606.29,0 l 404.8,0 c -5.48,8.78906 -11.6,17.2695 -17.42,25.8789 -9.86,14.5703 -23.24,23.832 -40.54,27.543 -14.03,3.0078 -27.99,6.4375 -41.98,9.707 -9.26,2.1406 -18.38,4.6016 -26.83,11.1094 9.22,9.7422 20.56,11.293 31.13,13.3828 18.98,3.75 38.18,2.0078 57.13,-1.1719 12.89,-2.1679 23.75,-9.1601 34.08,-16.8008 22.48,-16.6171 37.46,-39.3593 48.87,-64.13668 0.84,-1.82031 1.48,-3.65234 2.13,-5.51172 l 175.29,0 c 2.91,27.0313 0.59,54.1992 2.26,81.2305" /><path
             id="path28"
             style="fill:#b9e7e9;fill-opacity:1;fill-rule:nonzero;stroke:none"
             d="m 4522.34,611.039 c -4.72,-12.801 -10.97,-24.809 -20.54,-34.769 -0.82,-0.86 -2.85,-0.59 -5.3,-1 -3.88,5.359 -1.48,11.921 -2.34,17.859 -0.9,6.301 -2.25,12.609 -2.4,18.941 -0.24,9.84 -3.73,18.5 -7.19,27.5 -3.91,10.2 -13.03,18.629 -11.09,30.918 -8.25,10.684 -16.06,21.742 -24.87,31.934 -4.59,5.328 -10.91,9.199 -16.48,13.707 -9.79,7.93 -20.47,14.609 -29.04,24.223 -7.82,8.75 -19.85,12.808 -27.27,22.289 -2.28,2.91 -4.08,6.211 -6.56,10.039 23.4,1.461 48.92,-5.219 66.99,-17.602 14.53,-9.957 28.36,-20.918 38.73,-35.367 14.41,-20.063 28.4,-40.449 42.5,-60.781 10.41,-15.02 11.02,-31.211 4.86,-47.891 z m -211.36,334.762 c -18.91,-3.18 -37.84,-8.121 -54.05,-18.551 -12.81,-8.281 -26.99,-11.23 -40.74,-10.668 -12.93,0.508 -21.07,-3.652 -28.46,-12.691 -4.14,-5.063 -9.1,-8.75 -15.93,-9.629 -18.66,-2.403 -29.24,-14.711 -36.98,-30.512 -11.28,-23.012 -18.82,-47.34 -25,-72.07 -8.51,-34.121 -16.27,-68.418 -14.35,-105.25 -1.66,-23.711 1.46,-48.11 8.51,-72.129 2.91,-9.91 4.36,-20.219 6.65,-30.321 7.36,-32.421 20.56,-62.242 42.36,-87.511 29.76,-34.5 61.23,-67.328 96.4,-96.489 32.52,-26.968 69.67,-41.582 111.84,-42.21 17.5,-0.25 35.02,1.8 52.52,2.718 12.7,0.66 25.43,0.801 38.09,1.891 25.62,2.23 49.43,12.152 74.06,18.48 8.32,2.153 15.7,7.692 23.67,11.332 9.04,4.098 16.76,10.039 24.26,16.289 l 0,487.711 c -25.22,15.508 -51.95,28.239 -80.41,36.45 -59.75,17.218 -120.63,23.55 -182.44,13.16" /><path
             id="path30"
             style="fill:#b9e7e9;fill-opacity:1;fill-rule:nonzero;stroke:none"
             d="m 3733.48,681.539 c 6.91,22 -0.77,42.09 -7.99,62.27 -0.26,0.742 -0.18,1.601 -0.41,2.363 -9.26,28.359 -22.11,54.379 -43.83,75.816 -18.36,18.09 -37.58,34.442 -61.46,44.653 -28.75,23.769 -66.12,26.757 -98.85,40.879 -39.36,6.429 -78.4,15.371 -118.67,14.242 -38.77,-1.102 -76.29,-7.192 -110.79,-26.293 -4.84,-2.699 -90.89,-44.571 -95.43,-42.989 -3.63,1.27 -23.41,-25.878 -30.6,-38.98 -5.55,-10.16 -8.44,-20.488 -10.51,-31.43 -7.6,-40.14 -10.41,-80.761 -11.07,-121.519 -0.22,-13.563 -0.14,-27.352 2.01,-40.672 6.8,-42.008 19.39,-82.16 39.98,-119.758 8.59,-15.691 20.57,-28.652 33.28,-40.062 23.75,-21.25 50.06,-39.629 74.77,-59.86 25.6,-21 55.29,-30.73 87.52,-35.449 21.42,-3.148 42.77,-5.078 64.41,-4.16 9.84,0.41 18.59,-1.231 25.98,-9.262 10.47,-11.348 86.4,16.742 104.06,36.504 7.46,1.098 15.66,-0.211 19.65,3.297 19.45,17.012 49.37,20.082 61.7,46.391 0.62,1.308 2.61,1.871 3.61,3.089 14.16,17.071 35.08,27.961 44.75,49.102 12.61,7.32 16.42,21.211 23.53,32.461 7.27,11.5 11.33,24.43 10.33,38.726 -0.56,7.852 0.65,15.961 1.92,23.813 2.81,17.418 3.02,34.508 -1.06,51.949 -3.45,14.692 -4.65,29.899 -6.83,44.879" /><path
             id="path32"
             style="fill:#b9e7e9;fill-opacity:1;fill-rule:nonzero;stroke:none"
             d="m 3161.54,181.27 c -24.35,44.628 -57.89,81.761 -97.52,113.531 -15.74,12.621 -32.61,23.168 -51.13,30.828 -13.24,5.461 -26.91,10.152 -40.7,14.082 -44.63,12.73 -89.32,16.129 -133.83,-0.981 -2.93,-1.128 -6.19,-1.441 -9.3,-2.089 -11.05,-2.34 -21.48,-6.153 -30.84,-12.602 -8.65,-5.949 -18.16,-9.43 -28.34,-12.277 -14.45,-4.082 -28.88,-9.082 -42.32,-15.742 -9.53,-4.731 -15.12,-16.45 -28.13,-16.161 -2.09,0.039 -4.49,-4.121 -6.4,-6.597 -31.76,-41.383 -51.49,-88.063 -59.67,-139.41 -3.89,-24.473 -5.68,-49.4418 -1.66,-73.9926 3.32,-20.168 8.51,-40.1875 14.37,-59.8594 l 413.05,0 c -10.41,21.1914 -20.68,42.4609 -31.8,63.2383 -4.06,7.6211 -9.84,14.5117 -15.72,20.9414 -13.46,14.7109 -27.17,29.2423 -41.33,43.3003 -17.67,17.579 -38.08,31.45 -60.25,42.852 -6.97,3.578 -14.75,6.27 -19.98,14.566 3.75,10.301 9.57,16.821 22.28,16.372 32.02,-1.149 60.71,-9.43 85.71,-31.11 40.31,-34.961 68.92,-77.2498 85.04,-127.91 4.43,-13.9297 5.86,-27.8711 5.02,-42.25 l 133.02,0 c -0.82,31.8203 -7.2,61.6016 -16.64,90.7617 -10.35,31.9373 -26.93,61.2073 -42.93,90.5083" /><path
             id="path34"
             style="fill:#b9e7e9;fill-opacity:1;fill-rule:nonzero;stroke:none"
             d="m 2418.24,660.98 c 13.32,-37.171 26.25,-73.281 40.59,-113.261 -31.92,31.363 -46.43,73.351 -40.59,113.261 z M 2759.92,731 c -10.17,47.871 -38.71,83.32 -76.5,112.219 -20.35,15.551 -43.22,26.801 -67.03,36.211 -27.76,10.98 -56.57,17.82 -86.35,17.308 -61.23,-1.058 -118.56,-15.039 -167.13,-55.136 -3.01,-2.461 -6.56,-4.782 -10.23,-5.864 -15.94,-4.668 -32.02,-8.859 -50.08,-13.789 -7.27,-12.969 -14.4,-26.269 -22.03,-39.25 -16.27,-27.66 -30.3,-56.097 -34.12,-88.539 -1.59,-13.461 -4.56,-26.82 -5.16,-40.289 -1.47,-32.031 -0.68,-63.851 14.47,-93.48 3.24,-6.309 5.35,-13.321 7.17,-20.211 8.96,-34.52 24.96,-65.961 46.58,-93.66 41.33,-52.891 97.03,-78.711 163.99,-80.411 15.95,-0.39 31.93,-0.168 47.89,-0.757 44.31,-1.641 79.37,20.367 113.73,44.218 1.91,1.309 3.24,3.481 4.78,5.289 15.18,17.461 31.78,32.782 51.88,45.102 16.07,9.859 29.63,23.91 35.19,43.648 3.87,13.711 9.14,27.02 13.66,40.551 10.82,32.559 20.82,65.309 22.48,99.961 0.23,4.77 0.46,9.828 2.18,14.16 7.58,19.117 1.92,37.719 -1.58,56.41 -1.01,5.489 -2.64,10.86 -3.79,16.309" /><path
             id="path36"
             style="fill:#b9e7e9;fill-opacity:1;fill-rule:nonzero;stroke:none"
             d="m 503.633,139.199 c -5.996,10.25 -13.906,19.531 -21.797,28.5 -23.379,26.539 -51.016,48.75 -81.035,66.563 -25.918,15.367 -55.938,23.179 -85.567,29.879 -20.39,4.609 -40.976,4.531 -61.425,-1.442 -9.922,-2.91 -20.293,-4.277 -30.411,-6.59 -7.793,-1.75 -15.722,-3.218 -23.164,-5.949 C 161.23,235.922 122.5,220.922 85.0977,202.75 79.6094,200.102 71.3867,191.172 73.8477,187.66 70.1367,184.449 66.6016,181.469 63.125,178.441 53.5156,170.078 43.7891,161.84 34.3555,153.301 25.5078,145.289 17.5,136.328 8.24219,128.871 5.35156,126.539 2.67578,124.121 0,121.699 L 0,0 349.492,0 c -6.465,11.6602 -12.949,23.3203 -19.804,34.75 -10.86,18.1406 -26.329,31.4609 -44.258,42.8281 -20.586,13.0625 -41.817,22.9919 -66.426,24.9609 -4.434,0.352 -8.691,3.051 -13.184,4.711 3.36,8.449 9.61,9.68 15.957,8.73 8.653,-1.332 17.403,-3.07 25.625,-5.96 28.438,-9.961 53.223,-25.8012 72.481,-49.1802 C 335.781,41.5586 350.313,21.4102 362.891,0 l 201.504,0 c -1.973,15.1211 -7.286,29.6484 -12.051,44.082 -11.231,34.0782 -30.684,64.34 -48.711,95.117" /><path
             id="path38"
             style="fill:#b9e7e9;fill-opacity:1;fill-rule:nonzero;stroke:none"
             d="m 1405.51,146.09 c -2.33,2.129 -4.28,4.769 -5.9,7.461 -10.61,17.469 -26.33,29.828 -41.8,42.449 -4.29,3.512 -9.29,6.32 -12.99,10.371 -18.73,20.508 -42.93,33.039 -67.01,45.231 -22.17,11.207 -46.35,16.097 -71.11,19.687 -54.43,7.891 -104.34,-3.769 -152.72,-28.418 C 1015.18,223.09 981.074,196.84 946.895,170.512 939.473,164.789 933.516,156.91 927.617,149.469 914.18,132.52 904.141,113.379 893.008,94.9414 885.84,83.0313 880.547,70.8398 877.012,57.7891 872.031,39.3398 868.066,20.6094 863.691,1.96875 863.535,1.30859 863.398,0.660156 863.262,0 l 361.018,0 c -5,10.5898 -10.1,21.1094 -15.18,31.6406 -2.05,4.2813 -4.51,8.7891 -7.99,11.8594 -17.26,15.25 -27.52,36.9492 -46.54,50.6016 -2.27,1.6172 -3.71,4.3789 -6.35,7.5394 9.26,5.019 17.42,6.5 26.21,4.257 30.98,-7.9097 54.69,-25.1597 69.46,-53.9292 8.04,-15.6797 13.41,-32.1094 16.6,-49.54692 0.14,-0.80079 0.29,-1.601567 0.45,-2.42188 l 202.05,0 c -1.97,19.8984 -5.22,39.7695 -10.24,59.1992 -8.51,32.8906 -21.52,63.3398 -47.24,86.8908" /><path
             id="path40"
             style="fill:#b9e7e9;fill-opacity:1;fill-rule:nonzero;stroke:none"
             d="m 60.332,467.602 c 17.5586,21.718 32.2657,45.468 46.856,69.257 6.933,11.321 10.859,23.301 9.765,36.27 -0.84,9.922 1.719,18.672 4.16,27.98 6.055,23.11 10.039,46.59 5.625,70.672 -4.297,23.438 -8.183,46.949 -12.754,70.348 -1.035,5.351 -4.257,10.25 -6.386,15.41 -9.1605,21.973 -22.7542,41.621 -33.7503,62.641 -15.1758,29 -37.9493,53.082 -65.83989,71.148 C 5.39063,893.031 2.65625,894.531 0,896.172 L 0,408.5 c 7.07031,5.891 13.9648,12.09 21.582,17.301 15.3125,10.449 26.7774,26.988 38.75,41.801" /><path
             id="path42"
             style="fill:#b9e7e9;fill-opacity:1;fill-rule:nonzero;stroke:none"
             d="m 1686.93,598.59 c -1.62,-0.5 -3.24,-0.988 -4.88,-1.481 -3.36,6.02 -7.52,11.762 -9.98,18.141 -8.01,20.789 -17.79,41.27 -22.52,62.859 -8.42,38.243 -28.07,69.039 -54.82,96.282 -8.83,8.968 -17.8,17.757 -24.5,27.699 2.91,7.172 8.54,5.64 12.8,6 22.58,1.769 40.97,-5.731 58.94,-20.512 35.33,-29.098 45.37,-68.496 48.38,-110.289 1.9,-26.019 -2.07,-52.449 -3.42,-78.699 z m 186.68,67.91 c 2.95,59.199 -17.75,112.82 -39.25,166.23 -1.2,2.95 -2.93,5.692 -4.56,8.442 -16.17,27.68 -36.15,52.289 -58.35,75.348 -17.64,18.3 -39.95,29.089 -62.25,39.16 -19.49,8.789 -40.76,13.711 -61.31,20.16 -6.07,1.91 -12.28,3.441 -18.53,4.629 -34.2,6.543 -66.9,-0.918 -98.7,-12.27 -38.06,-13.59 -71.01,-36.269 -102.46,-61.23 -11.17,-8.86 -20.35,-20.348 -34.35,-25.641 -3.46,-1.308 -6.37,-4.769 -8.87,-7.777 -21.07,-25.25 -40.12,-52.16 -53.57,-82.071 -16.39,-36.421 -30.34,-74.019 -19.36,-115.441 0.8,-3.008 0.59,-6.391 0.35,-9.559 -1.09,-14.308 -1.68,-28.691 -3.71,-42.871 -4.16,-28.769 -0.51,-55.558 16.37,-80.039 4.47,-6.461 7.95,-13.859 10.62,-21.3 10.2,-28.301 27,-52.372 47.05,-74.301 5.86,-6.43 12.76,-12.207 20.06,-16.949 32.44,-21.079 67.58,-35.899 106.02,-41.43 22.89,-3.301 46.13,-4 69.08,-7.09 45.33,-6.051 89.08,-2.461 130.59,18.238 5.7,2.852 11.58,5.332 17.5,7.762 4.41,1.77 8.86,4.039 13.47,4.609 23.25,2.77 41.27,16.582 60.02,28.493 5.86,3.707 10.47,9.898 14.57,15.718 10.96,15.61 17.84,33.828 30.73,48.321 2.48,2.8 3.24,7.211 4.51,10.98 3.06,8.988 6.4,17.91 8.86,27.07 9.75,36.309 18.75,72.739 16.22,110.84 -0.26,3.989 -0.92,8.008 -0.75,11.969" /><path
             id="path44"
             style="fill:#b9e7e9;fill-opacity:1;fill-rule:nonzero;stroke:none"
             d="m 2410.39,46.4805 c -4.34,17.2304 -12.69,32.6015 -21.44,47.7812 -4.36,7.5583 -8.58,15.6793 -14.79,21.5003 -5.53,5.199 -9.51,10.859 -11.89,17.519 -3.11,8.598 -8.73,15.117 -14.79,21.469 -7.17,7.52 -14.34,15.039 -21.82,22.199 -20.89,20 -43.8,37.192 -70.46,49.012 -22.9,10.129 -47.09,16.758 -71.72,17.398 -35.22,0.922 -69.79,-4.589 -102.8,-18.789 -15.09,-6.48 -30.33,-12.808 -47.57,-14.781 -13.89,-1.609 -27.54,-7.09 -42.06,-7.758 -4.49,-0.211 -9.41,-2.461 -13.14,-5.172 -9.3,-6.757 -20.02,-9.629 -30.61,-13.109 -5.27,-1.719 -10.91,-3.418 -15.25,-6.641 C 1895.43,149.98 1865.06,117.75 1850.25,73.4609 1842.27,49.5703 1838.09,25.332 1838.98,0 l 360.71,0 c -11.1,16.4805 -23.81,31.9297 -37.76,46.6016 -17.13,17.9687 -38.08,28.5 -62.77,31.5078 -4.71,0.5625 -9.39,1.3594 -15.02,2.1797 2.25,7.8515 9.26,5 13.46,7.1523 18.63,9.4883 37.95,11.3867 58.01,4.7891 21.5,-7.0703 41.71,-16.2696 55.99,-34.7696 C 2225.63,39.3203 2237.79,20.2891 2247.09,0 l 179.94,0 c -2.5,8.87109 -5.6,17.6016 -9.59,26.1719 -3.01,6.4687 -5.29,13.3789 -7.05,20.3086" /><path
             id="path46"
             style="fill:#b9e7e9;fill-opacity:1;fill-rule:nonzero;stroke:none"
             d="m 641.445,713.609 c -2.207,-9.308 -4.179,-18.687 -5.84,-28.121 -4.726,-27.109 -0.761,-53.988 2.754,-80.84 0.918,-6.968 2.246,-13.91 3.75,-23.128 -9.746,4.089 -14.882,9.5 -18.125,16.921 -2.851,6.559 -4.902,13.571 -8.379,19.778 -6.503,11.66 -8.261,23.871 -7.011,36.961 0.84,8.672 0.586,17.461 0.937,26.172 0.098,2.339 0.196,4.796 0.938,6.988 6.015,18.09 11.679,36.289 18.496,54.082 2.773,7.207 7.93,13.598 12.519,20 0.86,1.207 4.161,0.707 7.832,1.187 -2.168,-17.379 -4.023,-33.808 -7.871,-50 z M 935.762,784 c -1.407,1.898 -2.403,4.18 -3.242,6.391 -10.254,26.949 -30.723,46.519 -50.547,65.718 -20.625,19.981 -46.114,33.602 -73.243,43.969 -24.042,9.203 -48.847,14.371 -74.023,18.961 -27.93,5.082 -55.41,4.223 -83.359,0.473 -26.739,-3.551 -51.836,-14.614 -79.043,-15.762 -12.442,-0.512 -78.457,-38.691 -83.887,-44.391 -13.613,-14.3 -21.855,-31.527 -27.773,-49.808 -5.997,-18.672 -15.84,-36.172 -16.387,-56.641 -0.43,-15.922 -3.555,-31.781 -3.926,-47.691 -0.41,-17.52 1.719,-35.098 1.406,-52.641 -0.722,-41.918 4.668,-82.598 17.871,-122.617 10.293,-31.211 21.231,-61.852 39.082,-89.691 6.973,-10.879 15.372,-20.211 25.118,-28.711 15.429,-13.45 34.199,-20.11 52.402,-28.278 30.723,-13.812 62.383,-18.281 95.742,-13.73 34.141,4.629 67.442,12.269 100.02,23.32 7.5,2.539 15.937,3.008 22.715,6.68 16.171,8.73 33.125,14.551 51.015,18.219 3.067,0.628 5.996,2.191 8.906,3.48 11.582,5.18 23.75,9.34 34.454,15.922 11.328,6.988 21.718,15.719 31.542,24.777 9.258,8.582 17.5,18.36 25.723,28.031 6.641,7.79 14.766,15.372 18.301,24.551 6.855,17.739 12.812,36.25 15.781,54.981 5.488,34.629 6.27,70.039 -1.055,104.238 -8.339,38.809 -19.296,77.379 -43.593,110.25" /><path
             id="path48"
             style="fill:#b9e7e9;fill-opacity:1;fill-rule:nonzero;stroke:none"
             d="m 4487.44,1456.41 c -8.75,-10.39 -17.32,-20.96 -25.58,-31.72 -24.67,-32.01 -39.2,-67.64 -37.21,-108.69 0.62,-13.52 2.79,-26.94 3.79,-40.43 3.4,-45.18 15.68,-87.97 35.56,-128.46 10.51,-21.45 20.36,-43.38 36.41,-61.74 21.21,-24.26 45.68,-44.04 73.42,-59.78 l 0,493.32 c -33.01,-15.04 -62.83,-34.5 -86.39,-62.5" /><path
             id="path50"
             style="fill:#b9e7e9;fill-opacity:1;fill-rule:nonzero;stroke:none"
             d="m 4533.36,2564.16 c -1.58,-13.45 -4.55,-26.81 -5.16,-40.29 -1.46,-32.02 -0.68,-63.85 14.48,-93.47 3.26,-6.31 5.35,-13.32 7.16,-20.22 5.47,-21.07 13.6,-40.98 23.99,-59.6 l 0,313.3 c -2.11,-3.73 -4.18,-7.48 -6.35,-11.18 -16.25,-27.66 -30.29,-56.1 -34.12,-88.54" /><path
             id="path52"
             style="fill:#b9e7e9;fill-opacity:1;fill-rule:nonzero;stroke:none"
             d="m 2119.2,1056.68 c -7.42,-2.19 -16.41,-4.26 -23.28,-2.01 -27.93,9.08 -55.82,18.77 -79.16,37.71 -6.78,5.51 -14.34,10.32 -20.2,16.66 -18.16,19.71 -28.61,42.87 -30.64,69.3 1.78,0.9 3.55,1.82 5.31,2.71 4.26,-5.41 8.91,-10.54 12.7,-16.26 15.8,-23.77 36.34,-41.86 62.16,-54.24 13.6,-6.53 26.43,-14.67 39.96,-21.33 9.22,-4.51 19.03,-7.89 28.7,-11.49 6.44,-2.4 13.06,-4.29 20.09,-6.56 -2.26,-9.37 -9.27,-12.62 -15.64,-14.49 z m 155.1,-72.809 c 5.49,1.598 10.47,2.828 14.53,7.18 18.46,19.829 37.13,39.459 55.62,59.259 2.17,2.33 3.73,5.2 5.53,7.83 29.9,44.36 43.13,93.85 44.79,146.74 0.48,15.96 -1.14,31.96 -0.71,47.91 1.04,37.37 -9.37,72.6 -19.65,107.78 -3.73,12.85 -9.31,25.48 -16.03,37.07 -17.79,30.64 -41.62,56.56 -67.11,80.9 -13.98,13.35 -30.12,24 -48.28,30.56 -20.18,7.31 -40.33,14.63 -61.76,18.44 -35.49,6.31 -71,10.59 -107.07,8.71 -36.21,-1.87 -70.8,-11.78 -105.49,-21.25 -6.15,-1.68 -12.58,-5.37 -18.38,-4.55 -14.51,2.03 -26.5,-3.32 -38.92,-9.04 -9.32,-4.28 -19.38,-7 -28.73,-11.23 -4.94,-2.25 -9.79,-5.63 -13.46,-9.61 -12.93,-14.05 -25.82,-28.13 -36.04,-44.5 -22.05,-35.39 -40.11,-72.59 -54.04,-111.93 -7.24,-20.47 -13.28,-41 -14.24,-62.81 -0.41,-9.61 -2.52,-18.71 -6.5,-27.76 -17.68,-40.23 -13.26,-79.43 7.69,-117.18 20.4,-36.8 48.05,-67.7 79.75,-95.02 21.82,-18.79 44.41,-36.698 69.71,-50.632 42.17,-23.218 87.63,-38.527 133.12,-53.609 8.97,-2.969 18.3,-4.809 26.92,-7.027 3.88,-7.954 82.85,-1.551 92.3,0.949 30.16,7.988 54.65,25.277 74.01,49.609 8.69,10.942 19.14,19.34 32.44,23.211" /><path
             id="path54"
             style="fill:#b9e7e9;fill-opacity:1;fill-rule:nonzero;stroke:none"
             d="m 1116.43,1372.6 c -27.33,-6.19 -48.46,-23.44 -70.92,-38.63 -16.74,-11.33 -31.99,-24.03 -42.74,-41.1 -8.043,-12.73 -14.235,-26.6 -21.364,-39.92 -1.777,-3.3 -4.023,-6.35 -7.011,-11.06 -10.254,12.78 -13.75,25.73 -9.004,39.16 13.828,39.32 29.882,77.6 62.769,105.61 4.11,3.5 9.28,7.21 14.32,7.83 27.54,3.42 54.06,0.26 78.07,-15.1 0.43,-0.27 0.33,-1.32 0.64,-2.81 -1.39,-1.21 -2.85,-3.55 -4.76,-3.98 z m 242.07,-283.89 c 9.61,16.51 20.07,32.87 26.81,50.57 5.14,13.47 9.38,26.81 18.64,38.16 2.46,3.01 4.57,6.88 5.27,10.67 4.41,23.39 13.3,46.09 11.93,70.54 -0.82,10.33 -1.42,20.71 -2.58,31 -0.52,4.71 -1.54,9.57 -3.41,13.89 -10.39,24.02 -15.32,49.82 -27.93,73.41 -15.67,29.22 -34.28,55.18 -59.52,76.35 -6.62,5.57 -15.15,8.83 -21.79,14.36 -16.58,13.84 -35.72,23.59 -54.59,33.3 -34.94,17.95 -71.99,28.92 -111.8,31.46 -46.5,2.99 -92.46,3.69 -137.44,-10.8 -3.789,-1.23 -8.242,-3.24 -11.621,-2.28 -13.34,3.77 -25.098,-3.03 -37.617,-4.32 -17.286,-1.8 -32.012,-9.34 -45.879,-19.08 -8.477,-5.98 -16.426,-12.78 -25.176,-18.3 -39.492,-24.96 -68.731,-59.07 -90.527,-100.02 -11.368,-21.33 -17.579,-44.26 -24.141,-67.4 -9.863,-34.69 -11.328,-68.97 -4.16,-104.13 10.058,-49.41 29.16,-94.39 63.633,-131.87 12.421,-13.52 25.117,-26.99 39.14,-38.77 12.735,-10.68 26.563,-20.72 41.406,-28.09 26.407,-13.122 54.024,-23.751 79.082,-39.641 6.036,-3.809 12.579,-7.02 19.26,-9.559 31.27,-11.93 62.5,-24 94.06,-35.031 17.44,-6.117 35.92,-8.828 54.34,-6.328 18.1,2.437 35.9,7.32 53.98,10.129 25.22,3.929 41.35,23.172 61.76,35.179 4.1,10.661 14.43,14.282 22.71,20.313 4.44,3.219 10.86,6.969 11.68,11.348 2.78,14.92 13.09,25.45 19.89,37.87 10.66,19.51 23.39,37.85 34.59,57.07" /><path
             id="path56"
             style="fill:#b9e7e9;fill-opacity:1;fill-rule:nonzero;stroke:none"
             d="m 2678.67,1759.21 c -0.86,4.5 -1.93,8.96 -2.56,13.49 -3.98,28.97 -15.86,54.95 -30.07,80.06 -9.83,17.33 -19.18,34.93 -29.42,52 -10.88,18.13 -26.35,31.48 -44.26,42.85 -20.6,13.06 -41.81,22.99 -66.42,24.96 -4.46,0.35 -8.71,3.04 -13.21,4.71 3.36,8.45 9.63,9.68 15.98,8.72 8.63,-1.32 17.38,-3.07 25.61,-5.95 28.43,-9.97 53.22,-25.81 72.48,-49.18 26.5,-32.17 49.33,-66.7 65.37,-105.44 7.44,-17.95 11.52,-36.51 11.35,-55.94 -0.04,-3.44 -1.25,-6.86 -4.85,-10.28 z m 172.54,87.51 c 3.81,23.82 -4.78,45.67 -11.93,67.36 -11.23,34.11 -30.71,64.36 -48.71,95.14 -6,10.25 -13.91,19.53 -21.82,28.5 -23.38,26.54 -51,48.73 -81.04,66.54 -25.91,15.38 -55.93,23.18 -85.56,29.89 -20.39,4.61 -40.98,4.53 -61.41,-1.45 -9.94,-2.91 -20.31,-4.28 -30.43,-6.58 -7.77,-1.76 -15.7,-3.23 -23.16,-5.95 -39.01,-14.25 -128.83,-58.97 -126.39,-62.49 -3.71,-3.2 -7.22,-6.19 -10.72,-9.21 -9.61,-8.37 -19.34,-16.6 -28.77,-25.15 -8.83,-8.01 -16.86,-16.97 -26.11,-24.42 -30.02,-24.15 -48.73,-54.18 -51.16,-93.37 -0.23,-3.87 -1.07,-8.01 -2.83,-11.42 -17.79,-34.48 -16.6,-70.71 -10.82,-107.59 4.86,-30.91 15.06,-60.31 25.14,-89.68 6.21,-18.09 13.61,-36.02 25.21,-51.47 19.18,-25.51 37.74,-51.62 60.76,-73.94 19.73,-19.13 42.43,-35.12 67.9,-44.2 41.95,-14.96 85.43,-18.68 129.35,-5.96 23.73,6.87 47.6,13.81 71.9,17.97 25.37,4.35 49.16,13.24 73.43,20.92 9.92,3.12 19.01,7.87 27.23,14.55 9.86,8.02 20.88,14.7 30.55,22.95 9.64,8.22 21.07,16.23 26.6,26.97 6.78,13.18 16.7,23.1 25.84,33.81 12.56,14.72 20.92,32.11 32.24,47.44 15.94,21.6 17.62,47.46 24.48,71.81 -2.93,23.02 6.52,46 0.23,69.03" /><path
             id="path58"
             style="fill:#b9e7e9;fill-opacity:1;fill-rule:nonzero;stroke:none"
             d="m 124.434,1359.84 c 15.468,-20.46 29.121,-39.76 44.082,-57.98 15.703,-19.13 31.562,-38.34 49.375,-55.39 17.031,-16.27 36.66,-29.81 57.871,-46.72 -32.559,5.66 -60.703,13.98 -85.235,31.09 -10.332,7.21 -19.629,16.62 -27.402,26.58 -15.684,20.1 -30.293,41 -41.328,64.28 -6.152,12.97 -4.063,24.26 2.637,38.14 z M 79.0234,998.91 c 27.3246,-0.238 54.0236,-3.621 80.3316,-10.82 17.93,-4.93 36.504,-0.942 54.668,-3.289 3.633,-0.461 7.715,1.719 11.465,3.051 10.489,3.73 20.664,8.91 31.446,11.187 17.089,3.621 30.879,13.871 42.929,24.261 19.317,16.66 38.946,32.66 60,46.93 7.168,4.87 14.961,9.54 23.164,12 20.235,6.05 38.047,17.16 55.039,28.49 22.539,14.98 42.149,34.2 57.891,56.74 12.461,17.87 13.672,40.35 23.984,59.32 3.34,6.15 0.528,15.64 0.528,23.61 0.136,0.02 0.273,0.04 0.41,0.08 -0.742,11.03 -2.188,22.07 -2.051,33.1 0.235,20.4 -5.879,39.59 -14.258,57.21 -8.476,17.85 -16.972,35.88 -26.738,53.17 -3.906,6.91 -8.613,13.41 -13.398,19.78 -6.192,8.24 -12.911,16.09 -19.258,24.24 -15.586,19.94 -28.965,41.95 -52.813,53.91 -3.418,1.71 -5.82,5.39 -8.886,7.91 -25.743,21.11 -49.297,45.72 -84.043,52.4 -1.504,0.29 -2.754,1.66 -4.258,2.17 -45.625,15.48 -91.504,28.77 -140.508,17.69 -5.43,-1.23 -11.035,-1.74 -16.602,-2.25 -43.0855,-3.92 -81.8941,-20.05 -118.9058,-41.46 -6.1524,-3.54 -12.67582,-6.48 -19.1406687,-9.43 C 0,1518.91 0,1518.91 0,1518.91 l 0,-493.32 c 5.01953,-2.86 9.94141,-5.82 15.1953,-8.4 20.3125,-9.96 41.1133,-18.088 63.8281,-18.28" /><path
             id="path60"
             style="fill:#b9e7e9;fill-opacity:1;fill-rule:nonzero;stroke:none"
             d="m 1770.47,1814.42 c -3.63,-14.66 -7.83,-29.19 -12.29,-45.64 -2.89,3.19 -6.15,5.32 -7.2,8.24 -2.13,5.92 -3.27,12.24 -4.46,18.46 -1.91,10.14 -4,20.28 -5.19,30.52 -3.2,27.49 -19.88,48.16 -34.57,69.89 -9.87,14.57 -23.24,23.82 -40.55,27.54 -14.02,3.03 -27.99,6.46 -41.97,9.71 -9.26,2.16 -18.38,4.61 -26.86,11.13 9.24,9.73 20.59,11.29 31.16,13.38 18.98,3.74 38.18,2 57.12,-1.18 12.89,-2.16 23.77,-9.17 34.09,-16.8 22.48,-16.64 37.48,-39.37 48.86,-64.15 8.99,-19.54 6.94,-40.6 1.86,-61.1 z m 176.21,148.68 c -6.8,22.91 -13.24,45.95 -21.07,68.5 -3.32,9.62 -8.79,18.9 -14.98,27.03 -12.56,16.51 -25.86,32.52 -39.73,47.93 -6.33,7.01 -14.12,13.24 -22.35,17.85 -31.56,17.71 -65.05,30.25 -101.32,34.12 -9.55,1.01 -18.99,1.38 -27.62,6.69 -2.97,1.86 -7.54,1.7 -11.33,1.53 -12.75,-0.59 -25.47,-1.62 -36.64,-2.37 -32.58,3.15 -61.91,-4.66 -90.62,-14.57 -28.68,-9.88 -57,-20.88 -85.06,-32.39 -16.23,-6.66 -31.78,-15.07 -44.22,-28.08 -17.13,-17.95 -36.7,-33.1 -55.72,-48.93 -14.87,-12.38 -26.41,-27.8 -35.06,-45.17 -8.52,-17.11 -17.35,-34.14 -24.87,-51.69 -5.31,-12.38 -10.13,-25.33 -12.52,-38.5 -3.24,-18 -4.37,-36.43 -5.62,-54.72 -1.33,-19.35 1.68,-38.3 8.73,-56.4 11.6,-29.91 25.25,-58.81 45.64,-83.89 13.62,-16.76 28.03,-32.83 41.78,-49.45 18.01,-21.78 39.51,-39.59 62.87,-55.14 18.56,-12.34 37.15,-24.63 59.53,-29.86 20.94,-4.89 41.39,-11.8 62.31,-16.72 21.11,-4.98 42.67,-7.21 64.33,-4.07 28.54,4.13 56.25,12 82.88,22.74 16.09,6.5 30.25,16.7 39.41,32.93 11.62,20.62 12.23,20.29 34.94,29.69 5.16,2.14 10.59,3.84 15.35,6.66 4.77,2.77 10.33,5.82 12.99,10.27 14.53,24.45 39.06,42.13 47.74,70.61 1.03,3.41 4.74,6.3 7.77,8.73 9.8,7.79 14.67,18.83 19.51,29.71 5.16,11.6 10.1,23.4 13.79,35.52 2.99,9.81 4.51,20.17 5.72,30.38 1.31,11.05 0.86,22.3 2.31,33.31 3.75,28.57 0.97,57.31 2.75,85.91 0.24,3.91 -0.51,8.06 -1.62,11.84" /><path
             id="path62"
             style="fill:#b9e7e9;fill-opacity:1;fill-rule:nonzero;stroke:none"
             d="m 3550.8,1778.78 c -7.87,2.82 -8.16,9.49 -10.14,15.29 -5.62,16.52 -10.74,33.27 -17.48,49.34 -8.28,19.73 -17.87,38.93 -27.16,58.24 -2.06,4.27 -4.52,8.79 -7.97,11.86 -17.29,15.26 -27.52,36.97 -46.55,50.62 -2.26,1.62 -3.73,4.37 -6.34,7.53 9.23,5.03 17.42,6.5 26.21,4.26 30.95,-7.9 54.67,-25.16 69.43,-53.94 8.05,-15.68 13.44,-32.12 16.62,-49.55 4.14,-22.73 8.87,-45.35 8.58,-68.57 -0.1,-8.55 0.5,-17.52 -5.2,-25.08 z m 201.33,58.06 c -0.76,30.87 -4.63,62.1 -12.46,92.39 -8.5,32.88 -21.51,63.33 -47.25,86.89 -2.3,2.12 -4.28,4.77 -5.9,7.46 -10.6,17.46 -26.32,29.82 -41.77,42.45 -4.3,3.5 -9.32,6.32 -13.01,10.37 -18.73,20.48 -42.91,33.02 -67.01,45.21 -22.15,11.21 -46.35,16.1 -71.1,19.67 -54.43,7.89 -104.33,-3.77 -152.71,-28.41 -38.81,-19.77 -72.93,-46.01 -107.09,-72.33 -7.44,-5.74 -13.38,-13.6 -19.3,-21.05 -13.44,-16.94 -23.46,-36.08 -34.59,-54.53 -7.19,-11.9 -12.48,-24.1 -15.99,-37.14 -5,-18.47 -8.97,-37.21 -13.34,-55.85 -1.63,-6.89 -2.06,-13.83 -9.71,-18.21 -2.85,-1.63 -3.63,-8.42 -3.75,-12.9 -0.2,-7.15 0.7,-14.36 1.58,-21.48 3.73,-30.14 8.87,-59.7 21.74,-87.86 15.35,-33.55 33.4,-65.33 53.94,-95.91 12.25,-18.23 26.63,-34.13 44.91,-45.96 14.02,-9.06 29.27,-16.21 43.82,-24.45 45.59,-25.81 94.46,-38.05 146.88,-36.47 19.88,1.7 40.04,1.84 59.59,5.37 49.02,8.89 95.49,25.92 138.81,50.47 17.95,10.2 35.49,21.9 50.96,35.49 20.8,18.24 30.27,42.58 26.09,70.55 -1.06,7.01 0,12.59 3.05,18.2 21.77,40.1 24.66,84.21 23.61,128.03" /><path
             id="path64"
             style="fill:#b9e7e9;fill-opacity:1;fill-rule:nonzero;stroke:none"
             d="m 4050.49,1201.7 c -0.65,-11.95 -0.29,-23.97 -0.22,-35.96 0.04,-8.18 -1.4,-15.8 -6.93,-22.85 -9.22,-0.84 -16.88,2.58 -25.53,7.99 -0.58,6.5 -1.5,11.29 -1.36,16.03 1.28,40.63 -14.52,76.18 -32.58,111.08 -11.76,22.73 -25,44.55 -40.04,65.31 -4.63,6.37 -8.11,13.58 -12.01,20.25 5.78,6.29 11.07,2.9 15.68,0.77 30.55,-14.03 54.96,-35.61 73.52,-63.36 19.96,-29.89 31.44,-62.6 29.47,-99.26 z m 73.05,-199.36 c 19.17,11.25 37.91,23.29 57.05,34.59 19.59,11.57 37.32,24.44 42.95,48.46 0.82,3.46 3.61,7.58 6.67,9.22 16.57,8.96 21.33,25.18 26.18,41.25 5.11,16.99 4.25,34.63 5.6,52.11 1.6,20.92 0.22,41.5 -2.15,61.99 -2.73,23.77 -7.16,47.33 -21.95,67.62 -5.08,6.95 -7.62,15.76 -11.35,23.71 -2.69,5.78 -4.76,11.99 -8.32,17.21 -15.23,22.42 -28.77,46.23 -48.08,65.54 -16.33,16.31 -32.29,33.66 -51.04,46.76 -47.83,33.44 -101.13,53.97 -159.63,59.92 -5.39,0.55 -10.99,1.82 -15.88,4.07 -24.02,11.13 -48.18,21.11 -75.64,16.83 -3.07,-0.49 -6.58,-0.82 -9.4,0.18 -11.71,4.08 -22.46,-0.53 -32.42,-4.69 -16.91,-7.09 -33.08,-16.07 -46.97,-28.44 -39.78,-35.45 -72.68,-76.38 -96.35,-124.22 -5.23,-10.56 -8.28,-22.42 -10.93,-34 -4.48,-19.36 -7.6,-38.81 -15.02,-57.64 -8.72,-22.13 -15.36,-45.08 -16.14,-69.55 -0.35,-11.23 1.19,-22.11 1.45,-33.16 0.99,-42.7 15.7,-80.96 37.99,-116.96 14.41,-23.26 35.76,-40.37 52.4,-61.64 6.15,-7.85 14.06,-16.56 24.84,-17.81 11.02,-1.29 19.28,-7.01 28.13,-12.26 13.73,-8.168 27.17,-16.879 41.31,-24.239 27.07,-14.101 54.55,-27.332 86.6,-23.671 10.37,0.679 20.78,0.82 31.07,2.109 52.56,6.601 103.05,20.762 151.29,42.75 9.41,4.301 18.81,8.75 27.74,13.961" /><path
             id="path66"
             style="fill:#b9e7e9;fill-opacity:1;fill-rule:nonzero;stroke:none"
             d="m 2149.34,2625.08 c 14.53,-9.96 28.36,-20.92 38.73,-35.36 14.41,-20.07 28.39,-40.46 42.5,-60.78 10.41,-15.03 11.03,-31.22 4.86,-47.89 -4.73,-12.8 -10.98,-24.82 -20.55,-34.77 -0.82,-0.86 -2.85,-0.59 -5.29,-1.01 -3.89,5.36 -1.48,11.92 -2.34,17.86 -0.9,6.3 -2.25,12.62 -2.41,18.95 -0.23,9.84 -3.73,18.5 -7.18,27.49 -3.91,10.21 -13.03,18.63 -11.1,30.92 -8.24,10.69 -16.05,21.74 -24.86,31.93 -4.59,5.33 -10.92,9.2 -16.49,13.71 -9.78,7.94 -20.46,14.62 -29.04,24.23 -7.81,8.75 -19.84,12.8 -27.26,22.28 -2.29,2.91 -4.09,6.21 -6.57,10.05 23.4,1.45 48.93,-5.22 67,-17.61 z m -220.06,161.51 c -12.93,0.51 -21.06,-3.65 -28.46,-12.69 -4.14,-5.06 -9.1,-8.75 -15.94,-9.63 -18.65,-2.41 -29.24,-14.71 -36.97,-30.51 -11.27,-23.01 -18.83,-47.34 -25,-72.08 -8.52,-34.12 -16.27,-68.41 -14.36,-105.24 -1.66,-23.72 1.47,-48.11 8.52,-72.13 2.91,-9.91 4.36,-20.23 6.64,-30.32 7.38,-32.43 20.57,-62.25 42.36,-87.52 29.75,-34.48 61.23,-67.31 96.41,-96.48 32.52,-26.97 69.67,-41.59 111.84,-42.21 17.5,-0.25 35.02,1.79 52.52,2.72 12.69,0.66 25.43,0.8 38.08,1.89 25.63,2.22 49.44,12.15 74.06,18.48 8.32,2.14 15.71,7.69 23.68,11.32 17.59,7.98 30.15,22.9 45.86,33.62 15.29,10.45 26.75,26.99 38.73,41.81 17.55,21.7 32.26,45.45 46.85,69.25 6.94,11.31 10.86,23.29 9.77,36.26 -0.82,9.92 1.72,18.67 4.16,27.99 6.05,23.1 10.04,46.59 5.62,70.66 -4.29,23.44 -8.16,46.96 -12.75,70.35 -1.04,5.35 -4.24,10.26 -6.39,15.41 -9.16,21.98 -22.75,41.63 -33.75,62.65 -15.17,29 -37.95,53.08 -65.82,71.15 -27.5,17.83 -56.97,32.25 -88.44,41.31 -59.74,17.24 -120.62,23.55 -182.44,13.18 -18.9,-3.18 -37.83,-8.12 -54.04,-18.57 -12.81,-8.28 -26.99,-11.23 -40.74,-10.67" /><path
             id="path68"
             style="fill:#b9e7e9;fill-opacity:1;fill-rule:nonzero;stroke:none"
             d="m 878.555,2683.51 c -5.567,-10.17 -8.457,-20.5 -10.528,-31.43 -7.597,-40.15 -10.39,-80.76 -11.074,-121.52 -0.215,-13.56 -0.137,-27.35 2.012,-40.67 6.797,-42.01 19.394,-82.17 39.98,-119.76 8.594,-15.68 20.567,-28.66 33.282,-40.05 23.75,-21.26 50.078,-39.63 74.763,-59.88 25.61,-21 55.31,-30.72 87.52,-35.45 21.43,-3.15 42.79,-5.07 64.42,-4.16 9.84,0.41 112.38,7.49 130.03,27.25 7.47,1.09 15.67,-0.21 19.65,3.29 19.46,17.02 49.38,20.1 61.7,46.4 0.63,1.31 2.62,1.88 3.62,3.09 14.16,17.07 35.07,27.96 44.74,49.1 12.62,7.31 16.43,21.21 23.54,32.46 7.26,11.5 11.34,24.42 10.33,38.73 -0.57,7.85 0.64,15.96 1.91,23.81 2.82,17.42 3.03,34.5 -1.05,51.94 -3.46,14.69 -4.65,29.91 -6.84,44.89 6.92,21.99 -0.76,42.09 -7.99,62.27 -0.27,0.74 -0.17,1.6 -0.41,2.35 -9.25,28.36 -22.11,54.39 -43.82,75.83 -18.36,18.09 -37.58,34.44 -61.47,44.65 -28.75,23.77 -66.11,26.76 -98.85,40.88 -39.35,6.43 -78.39,15.37 -118.67,14.24 -38.75,-1.09 -76.29,-7.19 -110.78,-26.29 -4.843,-2.7 -9.785,-5.72 -15.058,-7.05 -10.879,-2.77 -103.789,-61.82 -110.957,-74.92" /><path
             id="path70"
             style="fill:#b9e7e9;fill-opacity:1;fill-rule:nonzero;stroke:none"
             d="m 625.41,2071.29 c 32.012,-1.15 60.703,-9.43 85.703,-31.1 40.313,-34.97 68.926,-77.26 85.039,-127.93 8.399,-26.39 6.289,-52.79 -2.382,-82.07 -3.672,4.49 -5.957,6.43 -7.149,8.91 -4.883,10.03 -9.199,20.32 -14.121,30.32 -10.488,21.38 -20.879,42.85 -32.09,63.85 -4.062,7.62 -9.844,14.51 -15.722,20.93 -13.458,14.72 -27.168,29.24 -41.329,43.3 -17.675,17.58 -38.086,31.46 -60.254,42.85 -6.972,3.58 -14.746,6.27 -19.98,14.58 3.75,10.29 9.57,16.82 22.285,16.36 z m 33.086,-470.78 c 26.836,-4.32 52.344,-6.29 75.606,10.96 23.984,3.75 40.39,21.77 60.468,32.77 22.246,12.17 38.848,32.83 61.621,44.84 3.34,1.76 6.172,5.2 8.243,8.48 5.195,8.18 10.507,15.76 20.097,19.69 3.321,1.36 5.586,5.54 8.106,8.61 11.777,14.22 19.824,30.08 26.621,47.52 10.351,26.59 16.562,53.14 14.902,79.62 1.465,38.33 -5.508,73.49 -16.601,107.78 -10.332,31.94 -26.934,61.21 -42.93,90.52 -24.356,44.61 -57.891,81.73 -97.52,113.51 -15.742,12.61 -32.617,23.17 -51.132,30.82 -13.243,5.47 -26.914,10.15 -40.704,14.09 -44.628,12.72 -89.316,16.13 -133.828,-0.99 -2.929,-1.12 -6.191,-1.43 -9.297,-2.09 -11.054,-2.33 -21.484,-6.15 -30.839,-12.6 -8.653,-5.94 -18.164,-9.42 -28.34,-12.28 -14.453,-4.07 -28.887,-9.07 -42.324,-15.73 -9.532,-4.75 -15.118,-16.47 -28.125,-16.18 -2.09,0.06 -4.493,-4.1 -6.407,-6.6 -31.758,-41.37 -51.484,-88.03 -59.668,-139.38 -3.886,-24.47 -5.683,-49.43 -1.66,-73.98 3.36,-20.39 8.613,-40.58 14.531,-60.42 12.09,-40.54 32.95,-75.9 64.981,-104.25 8.965,-7.92 16.601,-17.09 22.363,-27.9 5.235,-9.84 12.09,-18.8 17.598,-28.51 19.707,-34.73 49.98,-58.65 84.551,-75.61 34.296,-16.83 71.543,-26.56 109.687,-32.69" /><path
             id="path72"
             style="fill:#b9e7e9;fill-opacity:1;fill-rule:nonzero;stroke:none"
             d="m 3869.94,2678.09 c 22.58,1.78 40.98,-5.72 58.95,-20.51 35.33,-29.1 45.37,-68.5 48.4,-110.29 1.87,-26.02 -2.09,-52.45 -3.42,-78.7 -1.64,-0.49 -3.26,-0.98 -4.89,-1.48 -3.37,6.02 -7.52,11.76 -9.98,18.14 -8,20.79 -17.79,41.28 -22.54,62.86 -8.39,38.24 -28.06,69.04 -54.82,96.29 -8.81,8.97 -17.79,17.76 -24.47,27.69 2.91,7.18 8.51,5.65 12.77,6 z m -198.05,65.48 c -21.05,-25.26 -40.11,-52.17 -53.57,-82.08 -16.39,-36.43 -30.33,-74.03 -19.36,-115.44 0.81,-3.02 0.59,-6.4 0.36,-9.57 -1.1,-14.3 -1.68,-28.69 -3.71,-42.86 -4.16,-28.78 -0.51,-55.56 16.38,-80.04 4.46,-6.47 7.93,-13.87 10.61,-21.3 10.19,-28.31 27.01,-52.37 47.05,-74.3 5.86,-6.43 12.77,-12.21 20.06,-16.94 32.44,-21.08 67.58,-35.91 106.01,-41.45 22.89,-3.29 46.16,-4 69.08,-7.08 45.34,-6.06 89.09,-2.46 130.59,18.24 5.7,2.85 11.6,5.34 17.52,7.76 4.39,1.78 8.85,4.05 13.46,4.61 23.26,2.77 41.27,16.59 60.04,28.49 5.84,3.71 10.47,9.9 14.55,15.73 10.95,15.61 17.83,33.81 30.72,48.3 2.48,2.8 3.24,7.21 4.53,10.98 3.07,9 6.39,17.92 8.85,27.08 9.74,36.3 18.75,72.74 16.23,110.84 -0.27,3.99 -0.94,8 -0.74,11.96 2.93,59.21 -17.78,112.82 -39.28,166.24 -1.19,2.95 -2.93,5.69 -4.53,8.44 -16.17,27.68 -36.15,52.29 -58.38,75.35 -17.64,18.33 -39.94,29.11 -62.23,39.17 -19.51,8.79 -40.78,13.71 -61.33,20.16 -6.07,1.91 -12.28,3.44 -18.53,4.63 -34.2,6.53 -66.89,-0.92 -98.69,-12.28 -38.05,-13.59 -71,-36.25 -102.46,-61.23 -11.16,-8.87 -20.35,-20.35 -34.34,-25.64 -3.48,-1.31 -6.39,-4.77 -8.89,-7.77" /><path
             id="path74"
             style="fill:#b9e7e9;fill-opacity:1;fill-rule:nonzero;stroke:none"
             d="m 4545.49,1753.3 c -1.25,-2.6 -3.5,-4.73 -7.33,-9.78 -7.44,23.3 -13.71,43.01 -20.03,62.7 -13.74,42.67 -38.75,78.29 -69.28,110.39 -17.11,17.99 -38.07,28.51 -62.78,31.52 -4.7,0.56 -9.37,1.36 -15,2.19 2.25,7.85 9.26,5 13.46,7.14 18.63,9.5 37.93,11.39 57.99,4.8 21.5,-7.08 41.72,-16.28 56,-34.78 27.71,-35.89 48.34,-75.14 53.39,-120.9 1.98,-18 1.8,-36.3 -6.42,-53.28 z m -75.1,360.06 c -35.19,0.92 -69.76,-4.58 -102.79,-18.78 -15.1,-6.49 -30.31,-12.82 -47.58,-14.79 -13.89,-1.6 -27.54,-7.07 -42.03,-7.74 -4.49,-0.2 -9.44,-2.46 -13.17,-5.17 -9.29,-6.75 -20.02,-9.63 -30.6,-13.1 -5.27,-1.73 -10.9,-3.43 -15.26,-6.65 -36.6,-27.12 -66.99,-59.36 -81.79,-103.65 -8.91,-26.68 -13.15,-53.77 -10.78,-82.33 4.25,-51.63 19.68,-98.17 54.49,-137.5 4.63,-5.23 7.83,-11.89 10.94,-18.28 13.69,-28.32 32.14,-53.3 53.86,-75.84 6.61,-6.85 13.93,-13.36 21.94,-18.46 18.84,-12.01 37.89,-23.8 57.59,-34.33 24.69,-13.17 49.95,-24.63 79.2,-24.59 40.04,0.08 76.9,12.23 113.36,26.78 12.13,11.13 27.93,15.04 42.48,21.27 4.63,1.99 9.13,4.18 13.58,6.42 l 0,471.55 c -10.04,6.7 -20.49,12.82 -31.72,17.79 -22.89,10.13 -47.09,16.76 -71.72,17.4" /><path
             id="path76"
             style="fill:#b9e7e9;fill-opacity:1;fill-rule:nonzero;stroke:none"
             d="m 2895.51,2525.19 c 0.84,8.67 0.6,17.45 0.94,26.17 0.09,2.34 0.21,4.79 0.93,6.98 6.02,18.09 11.68,36.3 18.5,54.08 2.77,7.22 7.93,13.61 12.52,20 0.86,1.22 4.16,0.71 7.83,1.2 -2.17,-17.38 -4.02,-33.81 -7.87,-50.01 -2.21,-9.3 -4.18,-18.69 -5.82,-28.11 -4.75,-27.11 -0.76,-53.99 2.75,-80.84 0.9,-6.98 2.23,-13.92 3.75,-23.13 -9.76,4.09 -14.9,9.49 -18.12,16.91 -2.85,6.57 -4.92,13.57 -8.38,19.78 -6.5,11.67 -8.28,23.87 -7.03,36.97 z m -120.18,204.18 c -13.61,-14.3 -21.85,-31.53 -27.75,-49.81 -6.02,-18.67 -15.84,-36.17 -16.41,-56.64 -0.43,-15.92 -3.55,-31.78 -3.92,-47.7 -0.41,-17.52 1.71,-35.1 1.42,-52.64 -0.72,-41.91 4.65,-82.6 17.85,-122.61 10.3,-31.22 21.23,-61.85 39.09,-89.69 6.97,-10.87 15.37,-20.21 25.11,-28.71 15.43,-13.45 34.22,-20.11 52.41,-28.29 30.72,-13.8 62.38,-18.27 95.74,-13.73 34.14,4.64 67.44,12.28 100.04,23.33 7.48,2.54 15.91,3 22.71,6.67 16.15,8.75 33.13,14.56 51,18.23 3.08,0.64 5.99,2.19 8.92,3.49 11.57,5.17 23.75,9.33 34.44,15.92 11.32,6.98 21.73,15.72 31.54,24.78 9.28,8.58 17.52,18.35 25.72,28.01 6.64,7.8 14.77,15.37 18.3,24.55 6.86,17.75 12.82,36.26 15.78,54.99 5.49,34.62 6.27,70.04 -1.05,104.23 -8.32,38.82 -19.3,77.38 -43.59,110.26 -1.41,1.9 -2.39,4.17 -3.23,6.39 -10.27,26.95 -30.74,46.52 -50.56,65.72 -20.63,19.99 -46.1,33.6 -73.23,43.97 -24.04,9.2 -48.84,14.37 -74.04,18.96 -27.91,5.08 -55.41,4.22 -83.36,0.47 -26.74,-3.55 -51.83,-14.61 -79.02,-15.76 -12.44,-0.51 -78.48,-38.69 -83.91,-44.39" /><path
             id="path78"
             style="fill:#b9e7e9;fill-opacity:1;fill-rule:nonzero;stroke:none"
             d="m 131.328,2530.99 c 13.32,-37.18 26.27,-73.28 40.586,-113.27 -31.914,31.37 -46.426,73.35 -40.586,113.27 z m 55.254,-294.87 c 15.957,-0.4 31.934,-0.18 47.891,-0.77 44.316,-1.63 79.375,20.38 113.75,44.23 1.894,1.32 3.203,3.49 4.765,5.29 15.176,17.47 31.778,32.79 51.875,45.11 16.075,9.85 29.629,23.9 35.196,43.64 3.867,13.71 9.16,27.01 13.652,40.55 10.82,32.56 20.82,65.3 22.48,99.95 0.235,4.77 0.469,9.83 2.188,14.16 7.578,19.13 1.914,37.73 -1.582,56.42 -1.016,5.48 -2.637,10.85 -3.789,16.31 -10.176,47.86 -38.711,83.32 -76.504,112.22 -20.352,15.55 -43.223,26.8 -67.031,36.22 -27.754,10.97 -56.563,17.81 -86.348,17.3 -61.23,-1.05 -118.555,-15.04 -167.1289,-55.14 -3.0078,-2.46 -6.5625,-4.78 -10.2344,-5.86 C 49.8242,2701.08 33.75,2696.88 15.6836,2691.96 10.4883,2682.69 5.29297,2673.25 0,2663.88 L 0,2350.6 c 6.62109,-11.9 14.1602,-23.27 22.5977,-34.07 41.3281,-52.9 97.0313,-78.72 163.9843,-80.41" /><path
             id="path80"
             style="fill:#b9e7e9;fill-opacity:1;fill-rule:nonzero;stroke:none"
             d="m 3085.18,1161.89 c -16.61,-2.77 -18.17,-2.3 -23.87,8.5 -6.31,11.97 -13.18,23.77 -18.36,36.23 -7.21,17.36 -18.09,32.01 -31.33,44.75 -18.36,17.63 -37.03,35.04 -59.65,47.58 -7.15,3.96 -15.74,7.32 -19.47,18.1 20.33,2.58 37.81,-0.76 54.39,-8.96 36,-17.8 63.42,-45.14 85.84,-77.99 14.36,-21.06 16.76,-44.03 12.45,-68.21 z m 66.46,-126.26 c 1.23,9.02 7.75,11.95 15.22,12.46 15.6,1.07 28.39,10.15 42.91,14.25 3.47,0.98 6.52,4.24 9.27,6.96 5.06,4.96 9.77,10.27 14.59,15.47 4.36,4.64 10.39,8.63 12.68,14.16 7.58,18.32 17.83,35.66 20.66,55.86 3.81,27.12 5.35,68.06 0.45,95 -3.38,18.61 -7.34,37.07 -16.64,54.45 -21.99,41.13 -48.32,78.77 -81.72,111.39 -11.97,11.67 -22.91,24.66 -37.99,32.63 -17.57,9.32 -34.74,20.02 -53.32,26.76 -40.62,14.71 -82.65,16.45 -125.02,7.54 -32.24,-6.78 -62.4,-19.1 -92.1,-33.17 -19.58,-9.25 -53.15,-41.66 -54.81,-43.71 -8.98,-11.13 -11.43,-25.88 -19.49,-36.85 -23.99,-32.52 -37.56,-70.31 -56,-105.61 -7.46,-14.27 -11.44,-29.94 -10.13,-46.25 1.77,-22.22 4.06,-44.41 6.54,-66.58 3.44,-30.64 17.17,-55.94 40.02,-76.68 8.79,-7.95 17.99,-16.21 24.1,-26.13 7.17,-11.62 17.48,-18.17 28.18,-25.14 7.99,-5.19 16.25,-10.41 22.91,-17.11 12.62,-12.67 28.07,-20.971 42.93,-30.209 14.38,-8.949 30.06,-15.082 46.86,-17.312 21.35,-2.829 42.83,-6.661 64.24,-6.457 17.22,0.168 35.27,3.418 51.36,9.507 13.75,5.211 26.16,15.352 37.48,25.231 12.5,10.922 66.53,47.31 66.82,49.54" /><path
             id="path82"
             style="fill:#b9e7e9;fill-opacity:1;fill-rule:nonzero;stroke:none"
             d="m 106.309,1667.17 c 10.879,-2.23 16.543,5.27 20.761,12.79 9.024,16.06 16.485,32.83 16.328,51.97 -0.039,5.53 0.137,11.37 1.836,16.55 4.805,14.78 3.887,29.88 4.161,41.17 -0.665,8.59 -1.329,13.36 -1.329,18.13 -0.058,30.63 -4.472,60.33 -17.539,88.4 -3.007,6.47 -5.293,13.38 -7.05,20.31 -4.336,17.24 -12.696,32.61 -21.446,47.79 -4.3552,7.56 -8.574,15.68 -14.7654,21.51 -5.5468,5.2 -9.5312,10.85 -11.914,17.51 -3.1055,8.59 -8.7305,15.13 -14.7852,21.48 -7.168,7.51 -14.3359,15.02 -21.8164,22.19 -12.0898,11.58 -24.9805,22.02 -38.75,31.2 l 0,-471.55 c 16.9336,8.58 32.5391,19.1 46.4258,32.31 16.8945,16.07 39.1015,20.56 59.8832,28.24" /><path
             id="path84"
             style="fill:#b9e7e9;fill-opacity:1;fill-rule:nonzero;stroke:none"
             d="m 4406.11,2926.68 c -7.42,-2.18 -16.4,-4.26 -23.28,-2.01 -27.93,9.09 -55.82,18.78 -79.16,37.72 -6.78,5.51 -14.33,10.31 -20.19,16.66 -18.17,19.71 -28.62,42.88 -30.65,69.3 1.78,0.9 3.54,1.81 5.31,2.7 4.26,-5.39 8.91,-10.54 12.72,-16.25 15.78,-23.77 36.33,-41.86 62.15,-54.25 13.59,-6.53 26.42,-14.66 39.96,-21.32 9.22,-4.52 19.02,-7.89 28.69,-11.48 6.45,-2.41 13.07,-4.3 20.1,-6.58 -2.27,-9.36 -9.28,-12.62 -15.65,-14.49 z m 62.03,470.87 c -35.48,6.31 -70.99,10.58 -107.05,8.7 -36.23,-1.87 -70.82,-11.77 -105.5,-21.24 -6.16,-1.68 -12.6,-5.37 -18.38,-4.56 -14.51,2.04 -26.51,-3.32 -38.93,-9.03 -9.32,-4.29 -19.37,-6.99 -28.73,-11.24 -4.94,-2.24 -9.78,-5.62 -13.46,-9.61 -12.93,-14.05 -25.82,-28.13 -36.03,-44.5 -22.05,-35.37 -40.12,-72.58 -54.04,-111.93 -7.25,-20.47 -13.29,-41 -14.24,-62.81 -0.41,-9.61 -2.54,-18.71 -6.51,-27.76 -17.67,-40.23 -13.26,-79.42 7.68,-117.18 20.41,-36.79 48.07,-67.68 79.76,-95 21.82,-18.8 44.42,-36.7 69.71,-50.63 42.19,-23.21 87.64,-38.52 133.13,-53.62 8.96,-2.97 18.3,-4.8 26.91,-7.03 3.89,-7.95 82.85,-1.54 92.31,0.96 30.15,7.98 54.64,25.27 74,49.63 8.69,10.92 19.14,19.31 32.44,23.19 4.67,1.36 8.93,2.57 12.62,5.56 l 0,492.89 c -12.97,11.52 -27.58,20.86 -43.93,26.77 -20.17,7.31 -40.33,14.62 -61.76,18.44" /><path
             id="path86"
             style="fill:#b9e7e9;fill-opacity:1;fill-rule:nonzero;stroke:none"
             d="m 3252.3,3151.07 c 13.83,39.3 29.89,77.59 62.78,105.6 4.1,3.5 9.28,7.21 14.31,7.83 27.54,3.42 54.07,0.26 78.07,-15.09 0.41,-0.28 0.33,-1.34 0.65,-2.82 -1.39,-1.21 -2.86,-3.55 -4.75,-3.98 -27.34,-6.2 -48.48,-23.44 -70.94,-38.63 -16.74,-11.34 -31.99,-24.03 -42.73,-41.1 -8.05,-12.73 -14.24,-26.61 -21.37,-39.92 -1.78,-3.3 -4,-6.36 -7.01,-11.05 -10.26,12.77 -13.75,25.71 -9.01,39.16 z m -138.8,-206.85 c 12.44,-13.51 25.13,-26.97 39.16,-38.75 12.71,-10.69 26.56,-20.73 41.4,-28.09 26.41,-13.12 54.03,-23.75 79.08,-39.65 6.02,-3.81 12.58,-7 19.26,-9.55 31.27,-11.92 62.5,-23.99 94.08,-35.04 17.43,-6.12 35.9,-8.83 54.3,-6.33 18.13,2.44 35.92,7.32 54.01,10.14 25.21,3.92 41.34,23.16 61.75,35.17 4.1,10.66 14.44,14.28 22.72,20.31 4.43,3.23 24.76,36.81 31.56,49.23 10.66,19.49 23.4,37.84 34.59,57.06 9.61,16.51 20.08,32.87 26.82,50.57 5.13,13.46 9.37,26.82 18.63,38.15 2.46,3.02 4.57,6.89 5.27,10.67 4.42,23.39 13.3,46.09 11.94,70.55 -0.82,10.34 -1.43,20.7 -2.58,31 -0.53,4.7 -1.54,9.56 -3.42,13.88 -10.39,24.03 -15.31,49.83 -27.93,73.42 -15.66,29.22 -34.28,55.16 -59.51,76.35 -6.62,5.56 -15.16,8.82 -21.8,14.36 -16.58,13.85 -35.72,23.59 -54.59,33.29 -34.94,17.96 -71.99,28.92 -111.79,31.47 -46.51,2.99 -92.47,3.7 -137.45,-10.81 -3.79,-1.22 -8.24,-3.23 -11.64,-2.27 -13.32,3.76 -25.07,-3.03 -37.59,-4.33 -17.29,-1.8 -32.02,-9.32 -45.88,-19.07 -8.48,-5.98 -16.43,-12.77 -25.18,-18.3 -39.51,-24.97 -68.73,-59.08 -90.53,-100.02 -11.36,-21.33 -17.57,-44.27 -24.14,-67.4 -9.86,-34.7 -11.31,-68.98 -4.16,-104.12 10.06,-49.43 29.16,-94.41 63.62,-131.89" /><path
             id="path88"
             style="fill:#b9e7e9;fill-opacity:1;fill-rule:nonzero;stroke:none"
             d="m 4517.27,3656.52 c 4.86,-30.91 15.05,-60.31 25.13,-89.67 6.21,-18.09 13.6,-36.03 25.22,-51.48 2.07,-2.76 4.14,-5.53 6.21,-8.3 l 0,232.94 -55.1,0 c -7.54,-27.11 -5.92,-55.11 -1.46,-83.49" /><path
             id="path90"
             style="fill:#b9e7e9;fill-opacity:1;fill-rule:nonzero;stroke:none"
             d="m 2411.35,3229.86 c 15.47,-20.48 29.12,-39.78 44.08,-58 15.7,-19.11 31.56,-38.33 49.37,-55.38 17.04,-16.28 36.66,-29.82 57.88,-46.73 -32.56,5.66 -60.71,13.98 -85.24,31.09 -10.33,7.21 -19.63,16.62 -27.4,26.58 -15.68,20.11 -30.29,41.01 -41.33,64.28 -6.15,12.98 -4.06,24.26 2.64,38.16 z m -234.28,-212.75 c 10.53,-21.45 20.37,-43.37 36.43,-61.74 25.05,-28.65 54.37,-51.41 88.61,-68.17 20.31,-9.95 41.09,-18.09 63.83,-18.28 27.32,-0.23 54.02,-3.62 80.33,-10.82 17.93,-4.92 36.5,-0.93 54.67,-3.28 3.63,-0.47 7.71,1.71 11.46,3.04 10.49,3.73 20.67,8.91 31.45,11.19 17.09,3.62 30.88,13.87 42.93,24.26 19.31,16.66 38.94,32.66 60,46.92 7.17,4.87 14.96,9.54 23.16,12 20.24,6.06 38.05,17.18 55.04,28.49 22.54,14.99 42.15,34.21 57.89,56.74 12.46,17.87 13.67,40.35 23.99,59.33 3.34,6.14 0.52,15.64 0.52,23.6 0.14,0.03 0.28,0.05 0.41,0.08 -0.74,11.03 -2.18,22.08 -2.05,33.1 0.24,20.41 -5.88,39.59 -14.26,57.21 -8.47,17.85 -16.97,35.89 -26.73,53.18 -3.91,6.91 -8.62,13.42 -13.4,19.78 -6.19,8.22 -12.91,16.1 -19.26,24.22 -15.59,19.95 -28.96,41.97 -52.81,53.93 -3.42,1.72 -5.82,5.38 -8.89,7.91 -25.74,21.1 -49.3,45.71 -84.06,52.4 -1.49,0.29 -2.74,1.66 -4.24,2.16 -45.61,15.48 -91.5,28.78 -140.51,17.7 -5.43,-1.23 -11.03,-1.74 -16.6,-2.24 -43.09,-3.93 -81.89,-20.07 -118.91,-41.47 -6.15,-3.55 -12.67,-6.49 -19.14,-9.43 -33,-15.04 -62.83,-34.49 -86.4,-62.51 -8.75,-10.39 -17.33,-20.95 -25.61,-31.71 -24.65,-32.01 -39.18,-67.64 -37.21,-108.7 0.65,-13.51 2.8,-26.93 3.81,-40.43 3.4,-45.18 15.69,-87.96 35.55,-128.46" /><path
             id="path92"
             style="fill:#b9e7e9;fill-opacity:1;fill-rule:nonzero;stroke:none"
             d="m 3613.59,3663.93 c 11.61,-29.91 25.26,-58.8 45.65,-83.89 13.61,-16.75 28.03,-32.83 41.78,-49.45 18,-21.77 39.51,-39.58 62.87,-55.12 18.55,-12.34 37.15,-24.63 59.53,-29.86 20.94,-4.91 41.38,-11.82 62.3,-16.74 21.12,-4.98 42.68,-7.2 64.34,-4.07 28.53,4.13 56.25,12 82.85,22.75 16.11,6.51 30.27,16.7 39.43,32.93 11.62,20.63 12.23,20.28 34.95,29.69 5.15,2.13 10.58,3.85 15.35,6.65 4.76,2.78 10.33,5.82 12.99,10.27 14.53,24.46 39.06,42.14 47.73,70.62 1.03,3.4 4.75,6.31 7.77,8.73 9.81,7.79 14.67,18.83 19.51,29.7 5.16,11.61 10.1,23.4 13.79,35.52 2.99,9.82 4.52,20.17 5.73,30.38 1.3,11.05 0.86,22.3 2.3,33.31 0.2,1.56 0.31,3.11 0.49,4.66 l -175.29,0 c 6.34,-17.96 4.33,-36.99 -0.28,-55.58 -3.63,-14.67 -7.83,-29.2 -12.28,-45.65 -2.89,3.19 -6.15,5.32 -7.21,8.24 -2.13,5.92 -3.26,12.24 -4.45,18.46 -1.92,10.14 -4.01,20.28 -5.2,30.52 -1.93,16.58 -8.81,30.66 -17.15,44.01 l -404.8,0 c -0.51,-6.56 -0.98,-13.12 -1.43,-19.68 -1.32,-19.35 1.68,-38.3 8.73,-56.4" /><path
             id="path94"
             style="fill:#b9e7e9;fill-opacity:1;fill-rule:nonzero;stroke:none"
             d="m 2711.21,3635.21 c 8.95,-7.91 16.6,-17.07 22.36,-27.87 5.24,-9.85 12.09,-18.81 17.6,-28.52 19.71,-34.74 49.98,-58.66 84.55,-75.62 34.3,-16.82 71.55,-26.54 109.69,-32.67 26.84,-4.32 52.34,-6.29 75.61,10.95 23.98,3.73 40.39,21.76 60.46,32.76 22.25,12.17 38.85,32.84 61.63,44.84 3.34,1.76 6.17,5.2 8.24,8.48 5.19,8.18 10.51,15.76 20.1,19.7 3.32,1.37 5.58,5.53 8.1,8.6 11.78,14.23 19.83,30.08 26.62,47.52 10.35,26.59 16.56,53.14 14.9,79.62 0.22,5.74 0.2,11.41 0.04,17.01 l -133.02,0 c -0.75,-12.83 -3.32,-25.99 -7.41,-39.82 -3.67,4.49 -5.95,6.43 -7.14,8.91 -4.89,10.03 -9.2,20.33 -14.13,30.33 -0.09,0.19 -0.19,0.39 -0.29,0.58 l -413.05,0 c 0.06,-0.17 0.1,-0.36 0.16,-0.54 12.09,-40.54 32.95,-75.9 64.98,-104.26" /><path
             id="path96"
             style="fill:#b9e7e9;fill-opacity:1;fill-rule:nonzero;stroke:none"
             d="m 57.5391,2920.32 c 2.1484,2.32 3.7304,5.19 5.5078,7.84 29.9219,44.34 43.1441,93.84 44.7851,146.73 0.508,15.95 -1.113,31.96 -0.684,47.9 1.036,37.37 -9.3746,72.6 -19.648,107.78 -3.75,12.86 -9.3164,25.5 -16.0547,37.08 -17.7734,30.62 -41.6015,56.56 -67.08983,80.9 -1.40625,1.33 -2.91016,2.52 -4.35547,3.79 l 0,-492.88 c 0.625,0.51 1.28906,0.97 1.89453,1.61 18.45707,19.83 37.14847,39.46 55.64457,59.25" /><path
             id="path98"
             style="fill:#b9e7e9;fill-opacity:1;fill-rule:nonzero;stroke:none"
             d="m 122.422,3397.24 c 41.973,-14.96 85.449,-18.67 129.375,-5.96 23.711,6.86 47.598,13.8 71.894,17.97 25.372,4.36 49.161,13.24 73.418,20.91 9.942,3.13 19.004,7.88 27.246,14.57 9.864,8.02 20.879,14.7 30.528,22.94 9.668,8.23 21.094,16.23 26.601,26.96 6.797,13.18 16.719,23.1 25.86,33.81 12.558,14.74 20.918,32.11 32.226,47.45 15.938,21.59 17.637,47.45 24.493,71.8 -2.93,23.02 6.503,46 0.234,69.03 1.269,7.96 1.074,15.69 0.098,23.29 l -201.504,0 c 8.398,-14.28 15.937,-29.08 22.363,-44.58 7.422,-17.95 11.504,-36.51 11.348,-55.94 -0.039,-3.44 -1.25,-6.86 -4.844,-10.28 -0.86,4.5 -1.953,8.97 -2.559,13.49 -3.984,28.97 -15.859,54.95 -30.097,80.07 -3.243,5.72 -6.426,11.48 -9.61,17.24 L 0,3740.01 0,3507.07 c 17.0313,-22.82 34.0039,-45.73 54.5508,-65.63 19.7265,-19.12 42.4219,-35.12 67.8712,-44.2" /><path
             id="path100"
             style="fill:#b9e7e9;fill-opacity:1;fill-rule:nonzero;stroke:none"
             d="m 853.984,3723.76 c -2.871,-1.63 -3.632,-8.42 -3.75,-12.9 -0.195,-7.15 0.704,-14.36 1.582,-21.48 3.731,-30.14 8.868,-59.7 21.739,-87.85 15.332,-33.56 33.379,-65.33 53.925,-95.92 12.247,-18.23 26.641,-34.11 44.903,-45.94 14.023,-9.07 29.297,-16.21 43.847,-24.46 45.59,-25.82 94.45,-38.06 146.88,-36.48 19.86,1.7 40.03,1.84 59.57,5.38 49.04,8.88 95.5,25.92 138.8,50.48 17.97,10.19 35.49,21.89 50.98,35.47 20.8,18.24 30.27,42.59 26.09,70.55 -1.07,7.02 0,12.59 3.05,18.2 21.76,40.11 24.67,84.21 23.6,128.03 -0.28,11.03 -1.1,22.11 -2.21,33.17 l -202.05,0 c 4.04,-21.91 8.4,-43.75 8.12,-66.15 -0.08,-8.55 0.53,-17.52 -5.17,-25.08 -7.87,2.82 -8.17,9.49 -10.16,15.29 -5.62,16.52 -10.74,33.27 -17.46,49.34 -3.77,8.97 -7.85,17.79 -11.99,26.6 l -361.018,0 c -1.328,-6.23 -2.344,-12.28 -9.278,-16.25" /><path
             id="path102"
             style="fill:#b9e7e9;fill-opacity:1;fill-rule:nonzero;stroke:none"
             d="m 1660.57,3234.32 c 30.56,-14.03 54.96,-35.61 73.53,-63.36 19.96,-29.87 31.43,-62.6 29.47,-99.25 -0.64,-11.96 -0.31,-23.98 -0.21,-35.96 0.04,-8.19 -1.41,-15.81 -6.93,-22.86 -9.22,-0.83 -16.9,2.59 -25.53,7.99 -0.59,6.51 -1.51,11.3 -1.37,16.05 1.29,40.61 -14.51,76.17 -32.58,111.07 -11.77,22.73 -25.02,44.55 -40.06,65.3 -4.6,6.37 -8.08,13.58 -12.01,20.27 5.8,6.29 11.1,2.89 15.69,0.75 z m -267.33,-281.16 c 14.4,-23.27 35.74,-40.38 52.4,-61.64 6.14,-7.86 14.07,-16.57 24.83,-17.82 11.01,-1.29 19.3,-7 28.14,-12.26 13.73,-8.16 27.17,-16.87 41.31,-24.24 27.05,-14.09 54.55,-27.32 86.6,-23.65 10.37,0.66 20.78,0.81 31.08,2.11 52.56,6.6 103.04,20.75 151.29,42.74 9.39,4.3 18.81,8.74 27.71,13.96 19.18,11.25 37.91,23.28 57.05,34.59 19.61,11.57 37.33,24.43 42.97,48.44 0.82,3.47 3.61,7.58 6.66,9.23 16.56,8.97 21.33,25.17 26.19,41.25 5.1,16.98 4.26,34.63 5.59,52.1 1.62,20.92 0.21,41.51 -2.13,61.99 -2.73,23.77 -7.17,47.34 -21.95,67.62 -5.08,6.95 -7.62,15.76 -11.35,23.71 -2.7,5.78 -4.79,12 -8.32,17.22 -15.26,22.42 -28.79,46.23 -48.09,65.52 -16.33,16.33 -32.28,33.67 -51.03,46.77 -47.83,33.44 -101.14,53.97 -159.63,59.92 -5.41,0.56 -11,1.82 -15.88,4.08 -24.04,11.12 -48.2,21.11 -75.66,16.83 -3.07,-0.49 -6.59,-0.82 -9.38,0.17 -11.74,4.09 -22.46,-0.52 -32.44,-4.69 -16.9,-7.08 -33.07,-16.06 -46.95,-28.44 -39.81,-35.45 -72.68,-76.37 -96.35,-124.21 -5.24,-10.56 -8.28,-22.42 -10.96,-34 -4.47,-19.35 -7.58,-38.82 -15,-57.65 -8.71,-22.11 -15.35,-45.06 -16.13,-69.54 -0.37,-11.23 1.19,-22.12 1.44,-33.17 0.98,-42.7 15.69,-80.96 37.99,-116.94" /><path
             id="path104"
             style="fill:#b9e7e9;fill-opacity:1;fill-rule:nonzero;stroke:none"
             d="m 1893.95,3593.65 c 4.64,-5.22 7.85,-11.89 10.93,-18.27 13.71,-28.33 32.15,-53.3 53.89,-75.85 6.58,-6.85 13.93,-13.35 21.91,-18.44 18.85,-12.01 37.91,-23.81 57.6,-34.33 24.69,-13.19 49.96,-24.65 79.2,-24.6 40.04,0.07 76.91,12.23 113.38,26.79 12.11,11.12 27.91,15.03 42.48,21.26 22.27,9.53 42.48,22.05 60,38.73 16.89,16.07 39.1,20.55 59.88,28.24 10.88,-2.24 16.55,5.26 20.76,12.78 9.03,16.07 16.49,32.84 16.33,51.97 -0.04,5.53 0.14,11.37 1.84,16.55 4.8,14.78 3.89,29.88 4.16,41.17 -0.67,8.59 -1.33,13.36 -1.33,18.14 -0.04,21.26 -2.27,42.07 -7.95,62.22 l -179.94,0 c 9.08,-19.8 15.39,-40.82 17.89,-63.43 1.99,-17.99 1.8,-36.29 -6.41,-53.28 -1.27,-2.6 -3.49,-4.73 -7.34,-9.77 -7.42,23.29 -13.69,43.01 -20.04,62.69 -7.44,23.17 -18.32,44.21 -31.5,63.79 l -360.71,0 c 0.1,-2.94 0.24,-5.89 0.49,-8.86 4.26,-51.63 19.67,-98.17 54.48,-137.5" /><path
             id="path106"
             style="fill:#b9e7e9;fill-opacity:1;fill-rule:nonzero;stroke:none"
             d="m 699.98,3178.1 c 35.997,-17.81 63.418,-45.14 85.821,-77.99 14.375,-21.07 16.777,-44.04 12.461,-68.22 -16.602,-2.77 -18.164,-2.29 -23.867,8.51 -6.329,11.98 -13.204,23.76 -18.379,36.23 -7.188,17.37 -18.067,32.01 -31.309,44.74 -18.359,17.65 -37.031,35.05 -59.648,47.59 -7.168,3.96 -15.743,7.32 -19.473,18.1 20.312,2.57 37.812,-0.77 54.394,-8.96 z M 503.926,2917.59 c 7.168,-11.62 17.5,-18.16 28.183,-25.13 7.989,-5.19 16.27,-10.41 22.911,-17.11 12.617,-12.68 28.085,-20.97 42.949,-30.22 14.375,-8.94 30.039,-15.08 46.855,-17.29 21.348,-2.83 42.832,-6.68 64.239,-6.46 17.226,0.15 35.273,3.42 51.367,9.51 13.75,5.2 26.152,15.33 37.461,25.22 12.5,10.91 52.832,38.04 63.789,43.32 1.64,0.8 2.754,3.99 3.047,6.21 1.23,9.03 7.753,11.95 15.214,12.46 15.606,1.06 28.379,10.15 42.911,14.24 3.476,0.98 6.503,4.25 9.277,6.97 5.059,4.95 9.766,10.26 14.59,15.46 4.336,4.66 10.39,8.64 12.676,14.16 7.578,18.33 17.832,35.66 20.664,55.87 3.789,27.11 5.351,68.06 0.449,94.99 -3.399,18.62 -7.344,37.07 -16.641,54.45 -22.012,41.13 -48.32,78.78 -81.719,111.37 -11.972,11.71 -22.929,24.67 -37.988,32.66 -17.597,9.32 -34.765,20.02 -53.32,26.75 -40.645,14.72 -82.656,16.46 -125.039,7.55 -32.246,-6.78 -62.383,-19.1 -92.09,-33.16 -19.57,-9.28 -53.145,-41.66 -54.805,-43.71 -9.004,-11.14 -11.426,-25.88 -19.511,-36.86 -23.965,-32.53 -37.54,-70.32 -55.997,-105.62 -7.46,-14.27 -11.425,-29.94 -10.136,-46.24 1.797,-22.22 4.082,-44.41 6.543,-66.58 3.457,-30.64 17.168,-55.95 40.039,-76.68 8.769,-7.96 17.988,-16.22 24.082,-26.13" /></g></g></g></g></svg>