<?xml version="1.0" encoding="UTF-8" standalone="no"?>
<svg
   xmlns:dc="http://purl.org/dc/elements/1.1/"
   xmlns:cc="http://creativecommons.org/ns#"
   xmlns:rdf="http://www.w3.org/1999/02/22-rdf-syntax-ns#"
   xmlns:svg="http://www.w3.org/2000/svg"
   xmlns="http://www.w3.org/2000/svg"
   viewBox="0 0 1062.9875 1096.7"
   height="1096.7"
   width="1062.9875"
   xml:space="preserve"
   version="1.1"
   id="svg2"><metadata
     id="metadata8"><rdf:RDF><cc:Work
         rdf:about=""><dc:format>image/svg+xml</dc:format><dc:type
           rdf:resource="http://purl.org/dc/dcmitype/StillImage" /></cc:Work></rdf:RDF></metadata><defs
     id="defs6"><clipPath
       id="clipPath18"
       clipPathUnits="userSpaceOnUse"><path
         id="path20"
         d="M 0,8773.59 0,0 l 8503.94,0 0,8773.59 -8503.94,0 z" /></clipPath></defs><g
     transform="matrix(1.25,0,0,-1.25,0,1096.7)"
     id="g10"><g
       transform="scale(0.1,0.1)"
       id="g12"><g
         id="g14"><g
           clip-path="url(#clipPath18)"
           id="g16"><path
             id="path22"
             style="fill:#74c7f0;fill-opacity:1;fill-rule:nonzero;stroke:none"
             d="m 0,0 8503.94,0 0,8773.59 L 0,8773.59 0,0 Z" /><path
             id="path24"
             style="fill:#334864;fill-opacity:1;fill-rule:nonzero;stroke:none"
             d="m 418.809,2737.9 0,181.05 L 0,2669.24 l 0,-41.62 418.809,-118.36 0,228.64" /><path
             id="path26"
             style="fill:#334864;fill-opacity:1;fill-rule:nonzero;stroke:none"
             d="m 8371.08,8167.38 132.86,-42.35 0,84.65 -132.86,-42.3" /><path
             id="path28"
             style="fill:#334864;fill-opacity:1;fill-rule:nonzero;stroke:none"
             d="M 773.395,8066.79 418.809,8343.04 0,8209.68 l 0,-84.65 418.809,-133.55 354.586,75.31" /><path
             id="path30"
             style="fill:#334864;fill-opacity:1;fill-rule:nonzero;stroke:none"
             d="m 7749.75,3039.84 0,-301.94 708.44,-97.32 45.75,-12.94 0,41.6 -46.81,-27.89 -707.38,398.49" /><path
             id="path32"
             style="fill:#334864;fill-opacity:1;fill-rule:nonzero;stroke:none"
             d="m 6681.16,1532.08 240.81,-23.29 191.72,81.14 -191.72,181.33 -240.81,-239.18" /><path
             id="path34"
             style="fill:#334864;fill-opacity:1;fill-rule:nonzero;stroke:none"
             d="m 418.809,1248.25 0,-22.59 653.671,0 -653.671,215.09 0,-192.5" /><path
             id="path36"
             style="fill:#334864;fill-opacity:1;fill-rule:nonzero;stroke:none"
             d="m 2670.01,484.301 0,351.64 -864.02,-268.05 864.02,-83.59" /><path
             id="path38"
             style="fill:#334864;fill-opacity:1;fill-rule:nonzero;stroke:none"
             d="m 3889.73,4711.95 -391.92,268.01 0,-327.7 391.89,59.65 0.03,0 781.07,-83.55 354.61,75.31 -354.61,276.29 -781.07,-268.01" /><path
             id="path40"
             style="fill:#334864;fill-opacity:1;fill-rule:nonzero;stroke:none"
             d="m 1372.44,1225.66 0,111.96 -299.96,-111.96 299.96,0" /><path
             id="path42"
             style="fill:#334864;fill-opacity:1;fill-rule:nonzero;stroke:none"
             d="m 418.809,5634.29 0,-22.58 653.671,0 -653.671,215.08 0,-192.5" /><path
             id="path44"
             style="fill:#334864;fill-opacity:1;fill-rule:nonzero;stroke:none"
             d="m 1372.44,4022.15 -378.006,-256.69 0,-0.04 378.006,-86.16 787.97,138.82 -787.97,204.07" /><path
             id="path46"
             style="fill:#334864;fill-opacity:1;fill-rule:nonzero;stroke:none"
             d="m 1805.99,4953.94 -433.55,268.05 0,-327.7 433.52,59.65 0.03,0" /><path
             id="path48"
             style="fill:#334864;fill-opacity:1;fill-rule:nonzero;stroke:none"
             d="m 7158.37,5950.84 -234.87,139.23 0,-194.89 234.87,55.66" /><path
             id="path50"
             style="fill:#334864;fill-opacity:1;fill-rule:nonzero;stroke:none"
             d="m 7749.75,4731.48 -600.61,-189.69 600.61,0 0,189.69" /><path
             id="path52"
             style="fill:#334864;fill-opacity:1;fill-rule:nonzero;stroke:none"
             d="m 8143.74,5826.79 -2.06,1.4 -391.93,262.78 0,-264.18 393.99,0" /><path
             id="path54"
             style="fill:#334864;fill-opacity:1;fill-rule:nonzero;stroke:none"
             d="m 3497.81,6291.09 -307.37,-375.51 307.37,0 0,375.51" /><path
             id="path56"
             style="fill:#334864;fill-opacity:1;fill-rule:nonzero;stroke:none"
             d="m 7749.75,505.051 0,-235.672 481.61,100.902 -481.61,321.758 0,-186.988" /><path
             id="path58"
             style="fill:#334864;fill-opacity:1;fill-rule:nonzero;stroke:none"
             d="m 2670.01,4230.7 0,-322.85 567.8,-119.23 -567.8,442.08" /><path
             id="path60"
             style="fill:#334864;fill-opacity:1;fill-rule:nonzero;stroke:none"
             d="m 1805.99,7055.84 -433.55,262.78 0,-264.14 433.55,0 0,1.36" /><path
             id="path62"
             style="fill:#334864;fill-opacity:1;fill-rule:nonzero;stroke:none"
             d="m 3497.81,1529.53 0,379.15 -307.39,-379.15 307.39,0" /><path
             id="path64"
             style="fill:#334864;fill-opacity:1;fill-rule:nonzero;stroke:none"
             d="m 5624.39,6246.4 0,-327.7 433.55,59.69 -433.55,268.01" /><path
             id="path66"
             style="fill:#334864;fill-opacity:1;fill-rule:nonzero;stroke:none"
             d="m 5210.44,3843.09 -0.16,0 0,-0.82 414.11,114.73 0,165.13 -413.95,-279.04" /><path
             id="path68"
             style="fill:#334864;fill-opacity:1;fill-rule:nonzero;stroke:none"
             d="m 3497.81,6690.97 0.69,0.12 1123.35,153.48 48.95,6.68 0,246.01 -498.59,-151.49 -673.71,151.72 0,-0.15 -0.69,0 0,-406.37" /><path
             id="path70"
             style="fill:#334864;fill-opacity:1;fill-rule:nonzero;stroke:none"
             d="m 6921.97,7143.31 0,-201.76 644.32,-90.3 -644.32,292.06" /><path
             id="path72"
             style="fill:#334864;fill-opacity:1;fill-rule:nonzero;stroke:none"
             d="m 5624.39,8078.89 435.84,0 -435.84,264.15 0,-264.15" /><path
             id="path74"
             style="fill:#334864;fill-opacity:1;fill-rule:nonzero;stroke:none"
             d="m 6921.97,5020.34 0,239.97 -515.09,-328.05 -2.81,-0.35 517.9,-39.22 0,127.65" /><path
             id="path76"
             style="fill:#334864;fill-opacity:1;fill-rule:nonzero;stroke:none"
             d="m 4670.8,3052.43 354.09,129.74 -354.09,199.62 0,-329.36" /><path
             id="path78"
             style="fill:#334864;fill-opacity:1;fill-rule:nonzero;stroke:none"
             d="m 4671.48,7679.68 574.35,302.11 -574.61,-61.99 0.26,-0.04 0,-240.08" /><path
             id="path80"
             style="fill:#334864;fill-opacity:1;fill-rule:nonzero;stroke:none"
             d="m 5624.39,3692.86 435.84,0 -435.84,264.14 0,-264.14" /><path
             id="path82"
             style="fill:#334864;fill-opacity:1;fill-rule:nonzero;stroke:none"
             d="m 7749.75,7280.66 0,-277.54 665.89,133.36 -665.89,144.18" /><path
             id="path84"
             style="fill:#334864;fill-opacity:1;fill-rule:nonzero;stroke:none"
             d="m 7749.75,2553.93 0,183.97 -306.88,-183.97 306.88,0" /><path
             id="path86"
             style="fill:#334864;fill-opacity:1;fill-rule:nonzero;stroke:none"
             d="m 418.809,505.051 0,-259.692 354.609,0 -354.609,259.801 0,-0.109" /><path
             id="path88"
             style="fill:#334864;fill-opacity:1;fill-rule:nonzero;stroke:none"
             d="m 8143.74,1440.75 -2.06,1.36 0,-0.19 -391.93,262.97 0,-264.14 393.99,0" /><path
             id="path90"
             style="fill:#334864;fill-opacity:1;fill-rule:nonzero;stroke:none"
             d="m 3497.81,8114.41 0,437.97 -827.8,-79.58 0,-304.37 509.4,-126.84 318.4,72.82" /><path
             id="path92"
             style="fill:#f03f62;fill-opacity:1;fill-rule:nonzero;stroke:none"
             d="m 3237.81,2320.49 260,-70.38 0,215.04 1.39,0 0,263.86 -1.39,0.28 -260,-408.8" /><path
             id="path94"
             style="fill:#f03f62;fill-opacity:1;fill-rule:nonzero;stroke:none"
             d="m 1372.44,5906.91 397.66,-133.09 309.21,383.87 75.63,93.91 -553.28,-93.91 -229.22,-38.91 0,-211.87" /><path
             id="path96"
             style="fill:#f03f62;fill-opacity:1;fill-rule:nonzero;stroke:none"
             d="m 1372.44,245.359 0,263.403 -599.022,-263.403 599.022,0" /><path
             id="path98"
             style="fill:#f03f62;fill-opacity:1;fill-rule:nonzero;stroke:none"
             d="m 958.492,7774.41 -539.683,-150.21 0,-250.26 953.631,237.11 -413.948,163.36" /><path
             id="path100"
             style="fill:#f03f62;fill-opacity:1;fill-rule:nonzero;stroke:none"
             d="m 4670.8,8741.44 0,-236.17 311.17,129.95 -311.17,106.22" /><path
             id="path102"
             style="fill:#f03f62;fill-opacity:1;fill-rule:nonzero;stroke:none"
             d="m 7749.75,8343.04 0,-327.68 621.31,152.02 0.02,0 -621.33,175.66" /><path
             id="path104"
             style="fill:#f03f62;fill-opacity:1;fill-rule:nonzero;stroke:none"
             d="m 6406.88,4932.26 -782.49,398.48 0,-339.77 779.68,-59.06 2.81,0.35" /><path
             id="path106"
             style="fill:#f03f62;fill-opacity:1;fill-rule:nonzero;stroke:none"
             d="m 2670.01,8472.8 -513.98,-177.07 0,-0.62 513.98,-126.68 0,304.37" /><path
             id="path108"
             style="fill:#f03f62;fill-opacity:1;fill-rule:nonzero;stroke:none"
             d="m 1372.44,2514.67 435.35,51.57 -435.35,205.43 0,-257" /><path
             id="path110"
             style="fill:#f03f62;fill-opacity:1;fill-rule:nonzero;stroke:none"
             d="m 2670.01,7054.48 0,-203.23 377.97,112.34 186.39,179.6 0.76,0.79 -565.12,193.39 0,-282.89" /><path
             id="path112"
             style="fill:#f03f62;fill-opacity:1;fill-rule:nonzero;stroke:none"
             d="m 2670.01,484.301 498.78,-114.02 329.02,210.469 0,245.621 -827.8,-342.07" /><path
             id="path114"
             style="fill:#f03f62;fill-opacity:1;fill-rule:nonzero;stroke:none"
             d="m 2670.01,4870.39 0,351.6 -864.02,-268.05 864.02,-83.55" /><path
             id="path116"
             style="fill:#f03f62;fill-opacity:1;fill-rule:nonzero;stroke:none"
             d="m 959.664,2820.63 -522.574,95.04 -18.281,3.3 0,-179.95 537.457,81.04 3.398,0.57" /><path
             id="path118"
             style="fill:#f03f62;fill-opacity:1;fill-rule:nonzero;stroke:none"
             d="m 6681.16,1532.08 240.81,239.18 -864.03,-178.95 623.22,-60.23" /><path
             id="path120"
             style="fill:#f03f62;fill-opacity:1;fill-rule:nonzero;stroke:none"
             d="m 5624.39,2757.13 0,-211.87 397.69,-133.08 899.89,143.04 0,201.91 -515.09,132.83 -782.49,-132.83" /><path
             id="path122"
             style="fill:#f03f62;fill-opacity:1;fill-rule:nonzero;stroke:none"
             d="m 4670.8,3692.86 0.64,0.13 538.84,149.28 0,0.82 -539.48,100.31 0,-250.54" /><path
             id="path124"
             style="fill:#5c8db1;fill-opacity:1;fill-rule:nonzero;stroke:none"
             d="m 6921.97,3957 -861.74,-264.14 861.74,0 0,264.14" /><path
             id="path126"
             style="fill:#5c8db1;fill-opacity:1;fill-rule:nonzero;stroke:none"
             d="m 4670.8,3692.86 -397.5,-50.21 -775.49,355.72 0,-637.44 688.23,122.4 484.76,-101.54 0,311.07" /><path
             id="path128"
             style="fill:#5c8db1;fill-opacity:1;fill-rule:nonzero;stroke:none"
             d="m 2670.01,8168.43 0,-243.25 509.4,116.41 -509.4,126.84" /><path
             id="path130"
             style="fill:#5c8db1;fill-opacity:1;fill-rule:nonzero;stroke:none"
             d="m 4670.8,5846.68 0,-190.83 354.61,0 -354.61,414.77 0,-223.94" /><path
             id="path132"
             style="fill:#5c8db1;fill-opacity:1;fill-rule:nonzero;stroke:none"
             d="m 3497.81,7097.34 0.69,0 0,0.15 -0.69,157.66 -260.37,-111.96 -2.31,0.79 -0.76,-0.79 -186.39,-179.6 449.83,133.75" /><path
             id="path134"
             style="fill:#5c8db1;fill-opacity:1;fill-rule:nonzero;stroke:none"
             d="m 6921.97,505.16 0,186.879 -524.26,-186.879 524.26,0" /><path
             id="path136"
             style="fill:#5c8db1;fill-opacity:1;fill-rule:nonzero;stroke:none"
             d="m 6921.97,2757.13 0,-203.2 518.58,0 -518.58,203.3 0,-0.1" /><path
             id="path138"
             style="fill:#5c8db1;fill-opacity:1;fill-rule:nonzero;stroke:none"
             d="m 5624.39,1269.81 0,263.35 -598.95,-352.88 598.95,89.53" /><path
             id="path140"
             style="fill:#5c8db1;fill-opacity:1;fill-rule:nonzero;stroke:none"
             d="m 8242.09,368.32 261.85,-47.3 0,102.371 -272.58,-53.11 10.73,-1.961" /><path
             id="path142"
             style="fill:#5c8db1;fill-opacity:1;fill-rule:nonzero;stroke:none"
             d="m 0,423.391 0,-102.371 418.809,-75.661 0,259.692 -20.039,-3.91 L 0,423.391" /><path
             id="path144"
             style="fill:#5c8db1;fill-opacity:1;fill-rule:nonzero;stroke:none"
             d="m 8503.94,5826.79 0,122.15 -360.2,-122.15 360.2,0" /><path
             id="path146"
             style="fill:#5c8db1;fill-opacity:1;fill-rule:nonzero;stroke:none"
             d="M 418.809,6090.97 0,5948.94 l 0,-122.15 418.809,0 0,264.18" /><path
             id="path148"
             style="fill:#5c8db1;fill-opacity:1;fill-rule:nonzero;stroke:none"
             d="m 418.809,2030.46 287.578,242.2 -287.578,60.07 0,-302.27" /><path
             id="path150"
             style="fill:#5c8db1;fill-opacity:1;fill-rule:nonzero;stroke:none"
             d="m 3889.73,325.84 -391.92,268.058 0,-327.718 391.89,59.66 781.1,-83.531 354.61,97.761 L 4670.8,593.898 3889.73,325.84" /><path
             id="path152"
             style="fill:#5c8db1;fill-opacity:1;fill-rule:nonzero;stroke:none"
             d="m 6921.97,7711.32 566.01,202.03 -566.01,165.54 0,264.15 -861.74,-264.15 861.74,-194.17 0,-173.4" /><path
             id="path154"
             style="fill:#5c8db1;fill-opacity:1;fill-rule:nonzero;stroke:none"
             d="m 1372.44,3078.8 -412.776,-258.17 -3.398,-0.57 416.174,62.82 0,195.92" /><path
             id="path156"
             style="fill:#5c8db1;fill-opacity:1;fill-rule:nonzero;stroke:none"
             d="m 2670.01,1732.73 -515.07,132.77 -782.5,-132.77 0,-211.88 397.66,-133.07 899.91,143.04 0,201.91" /><path
             id="path158"
             style="fill:#5c8db1;fill-opacity:1;fill-rule:nonzero;stroke:none"
             d="M 0,3811.8 0,3648.75 418.809,3603.93 773.395,3703.4 418.809,3955.54 0,3811.8" /><path
             id="path160"
             style="fill:#5c8db1;fill-opacity:1;fill-rule:nonzero;stroke:none"
             d="m 8503.94,3648.75 0,163.05 -362.26,-124.31 362.26,-38.74" /><path
             id="path162"
             style="fill:#5c8db1;fill-opacity:1;fill-rule:nonzero;stroke:none"
             d="m 7749.75,7886.4 0,128.96 -261.77,-102.01 261.77,-45.31 0,18.36" /><path
             id="path164"
             style="fill:#5c8db1;fill-opacity:1;fill-rule:nonzero;stroke:none"
             d="m 2670.01,4230.7 -509.6,-412.62 509.6,89.77 0,322.85" /><path
             id="path166"
             style="fill:#5c8db1;fill-opacity:1;fill-rule:nonzero;stroke:none"
             d="m 5624.39,6636.16 0,507.03 -299.97,-507.03 299.97,0" /><path
             id="path168"
             style="fill:#5c8db1;fill-opacity:1;fill-rule:nonzero;stroke:none"
             d="m 2154.94,8295.36 -378.79,192.86 73.75,-232.38 305.04,39.52" /><path
             id="path170"
             style="fill:#5c8db1;fill-opacity:1;fill-rule:nonzero;stroke:none"
             d="m 8415.64,7136.48 -665.89,-133.36 586.5,-244.03 167.69,38.95 0,319.34 -88.3,19.1" /><path
             id="path172"
             style="fill:#5c8db1;fill-opacity:1;fill-rule:nonzero;stroke:none"
             d="M 418.809,7026.68 0,7117.38 l 0,-319.34 418.809,97.3 0,131.34" /><path
             id="path174"
             style="fill:#5c8db1;fill-opacity:1;fill-rule:nonzero;stroke:none"
             d="m 4670.8,8330.93 -418.66,-341.41 0,-0.23 418.66,-69.43 0,411.07" /><path
             id="path176"
             style="fill:#5c8db1;fill-opacity:1;fill-rule:nonzero;stroke:none"
             d="m 2670.01,6118.78 -150.89,38.91 -364.18,93.91 -75.63,-93.91 -309.21,-383.87 899.91,143.05 0,-1.29 518.58,0 -518.58,201.37 0,1.83" /><path
             id="path178"
             style="fill:#5c8db1;fill-opacity:1;fill-rule:nonzero;stroke:none"
             d="m 6923.5,5895.18 0,194.89 -1.53,0.9 0,155.43 -864.03,-268.01 864.03,-83.55 1.53,0.34" /><path
             id="path180"
             style="fill:#5c8db1;fill-opacity:1;fill-rule:nonzero;stroke:none"
             d="m 8503.94,1440.75 0,122.15 -360.2,-122.15 360.2,0" /><path
             id="path182"
             style="fill:#5c8db1;fill-opacity:1;fill-rule:nonzero;stroke:none"
             d="m 0,1440.75 418.809,0 0,264.14 L 0,1562.9 0,1440.75" /><path
             id="path184"
             style="fill:#5c8db1;fill-opacity:1;fill-rule:nonzero;stroke:none"
             d="m 6921.97,1362.35 0,-670.311 482.06,119.57 37.93,9.403 307.79,76.379 0,544.409 -259.65,-148 -568.13,68.55" /><path
             id="path186"
             style="fill:#5c8db1;fill-opacity:1;fill-rule:nonzero;stroke:none"
             d="m 2670.01,484.301 191.61,79.179 -191.61,270.469 0,-349.648" /><path
             id="path188"
             style="fill:#5c8db1;fill-opacity:1;fill-rule:nonzero;stroke:none"
             d="m 3498.12,1529.58 -0.31,-0.08 0,-235.7 1172.99,-166.53 0,260.43 -0.24,0.15 -465.41,289.38 -707.03,-147.65" /><path
             id="path190"
             style="fill:#5c8db1;fill-opacity:1;fill-rule:nonzero;stroke:none"
             d="m 3499.2,2729.01 0,-263.86 1171.6,0 -1171.6,263.86" /><path
             id="path192"
             style="fill:#dbf4fd;fill-opacity:1;fill-rule:nonzero;stroke:none"
             d="m 1776.15,8488.22 -403.71,205.6 0,-499.84 477.46,61.86 -73.75,232.38" /><path
             id="path194"
             style="fill:#dbf4fd;fill-opacity:1;fill-rule:nonzero;stroke:none"
             d="m 4670.8,1387.82 0,-260.55 354.61,53.01 -354.61,446.37 0,-238.83" /><path
             id="path196"
             style="fill:#dbf4fd;fill-opacity:1;fill-rule:nonzero;stroke:none"
             d="m 1372.44,4894.29 0,0.51 -489.963,-196.37 0,-2.46 489.963,-64.57 0,262.89" /><path
             id="path198"
             style="fill:#dbf4fd;fill-opacity:1;fill-rule:nonzero;stroke:none"
             d="m 1372.44,508.762 0,-0.551 433.52,59.68 0.03,0 -433.55,268.05 0,-327.179" /><path
             id="path200"
             style="fill:#dbf4fd;fill-opacity:1;fill-rule:nonzero;stroke:none"
             d="m 2670.01,1732.73 0,-203.2 518.6,0 -518.6,203.29 0,-0.09" /><path
             id="path202"
             style="fill:#dbf4fd;fill-opacity:1;fill-rule:nonzero;stroke:none"
             d="m 2670.01,7337.37 -861.75,-282.89 861.75,0 0,282.89" /><path
             id="path204"
             style="fill:#dbf4fd;fill-opacity:1;fill-rule:nonzero;stroke:none"
             d="m 1805.99,7054.48 2.27,0 -2.27,1.36 0,-1.36" /><path
             id="path206"
             style="fill:#dbf4fd;fill-opacity:1;fill-rule:nonzero;stroke:none"
             d="m 7749.75,692.039 0,205.352 -307.79,-76.379 307.79,-128.973" /><path
             id="path208"
             style="fill:#dbf4fd;fill-opacity:1;fill-rule:nonzero;stroke:none"
             d="m 5624.39,1533.16 0,-0.54 433.55,59.69 -433.55,268.04 0,-327.19" /><path
             id="path210"
             style="fill:#dbf4fd;fill-opacity:1;fill-rule:nonzero;stroke:none"
             d="m 5624.39,5918.7 0,0.51 -598.98,-263.36 598.98,0 0,262.85" /><path
             id="path212"
             style="fill:#dbf4fd;fill-opacity:1;fill-rule:nonzero;stroke:none"
             d="m 8240.69,4835.07 216.44,203.78 -707.05,-147.64 -0.33,-0.08 0,-349.34 672.01,124.96 -448.43,-83.36 267.36,251.68" /><path
             id="path214"
             style="fill:#dbf4fd;fill-opacity:1;fill-rule:nonzero;stroke:none"
             d="m 6921.97,3692.86 0,-194.18 567.42,0 -567.42,194.18" /><path
             id="path216"
             style="fill:#dbf4fd;fill-opacity:1;fill-rule:nonzero;stroke:none"
             d="m 6921.97,6941.28 0,201.91 -515.09,132.78 -553.31,-93.87 -229.18,-38.91 0,-211.83 397.69,-133.13 899.89,143.05" /><path
             id="path218"
             style="fill:#dbf4fd;fill-opacity:1;fill-rule:nonzero;stroke:none"
             d="m 3497.81,3360.93 0,637.44 -604.35,-743.32 604.35,105.88" /><path
             id="path220"
             style="fill:#fee22a;fill-opacity:1;fill-rule:nonzero;stroke:none"
             d="m 418.809,4912.34 0,-0.12 L 0,5026.13 l 0,-344.1 4.78516,0.9 0,-0.04 414.02384,74.18 463.668,-61.1 0,2.46 -4.571,-1.83 -459.097,215.74" /><path
             id="path222"
             style="fill:#fee22a;fill-opacity:1;fill-rule:nonzero;stroke:none"
             d="m 8457.13,5038.85 -483.8,-455.46 448.43,83.36 82.18,15.28 0,344.1 -46.81,12.72" /><path
             id="path224"
             style="fill:#fee22a;fill-opacity:1;fill-rule:nonzero;stroke:none"
             d="m 5271.71,407.969 352.68,97.191 773.32,0 -773.32,230.352 -352.68,-327.543" /><path
             id="path226"
             style="fill:#fee22a;fill-opacity:1;fill-rule:nonzero;stroke:none"
             d="m 4670.8,2465.15 0,-215.04 653.62,0 -653.62,215.04" /><path
             id="path228"
             style="fill:#fee22a;fill-opacity:1;fill-rule:nonzero;stroke:none"
             d="m 3497.81,4652.26 0,327.7 -580.92,-174.61 580.92,-153.09" /><path
             id="path230"
             style="fill:#fee22a;fill-opacity:1;fill-rule:nonzero;stroke:none"
             d="m 5624.39,4830.85 0,315.35 -391.27,-398.43 391.27,83.08" /><path
             id="path232"
             style="fill:#fee22a;fill-opacity:1;fill-rule:nonzero;stroke:none"
             d="m 4670.8,6851.25 0,-215.09 653.62,0 -653.62,215.09" /><path
             id="path234"
             style="fill:#fee22a;fill-opacity:1;fill-rule:nonzero;stroke:none"
             d="m 7749.75,78.0391 0,191.3399 -605.88,-191.3399 605.88,0" /><path
             id="path236"
             style="fill:#fee22a;fill-opacity:1;fill-rule:nonzero;stroke:none"
             d="m 1372.44,5611.71 0,162.11 -299.96,-162.11 299.96,0" /><path
             id="path238"
             style="fill:#fee22a;fill-opacity:1;fill-rule:nonzero;stroke:none"
             d="m 6921.97,5260.31 0,-196.61 308.09,43.21 -308.09,153.4" /><path
             id="path240"
             style="fill:#fee22a;fill-opacity:1;fill-rule:nonzero;stroke:none"
             d="m 2670.01,2668.4 0,264.16 -860.89,-366.16 860.89,102" /><path
             id="path242"
             style="fill:#fee22a;fill-opacity:1;fill-rule:nonzero;stroke:none"
             d="m 3497.81,8114.41 0.69,0 753.43,-125.04 0.04,0 -754.16,563.01 0,-437.97" /><path
             id="path244"
             style="fill:#fee22a;fill-opacity:1;fill-rule:nonzero;stroke:none"
             d="m 7749.75,3627.82 391.93,59.67 -391.93,268.05 0,-327.72" /><path
             id="path246"
             style="fill:#fee22a;fill-opacity:1;fill-rule:nonzero;stroke:none"
             d="m 1372.44,8193.98 0,315.31 -391.249,-398.41 391.249,83.1" /><path
             id="path248"
             style="fill:#fee22a;fill-opacity:1;fill-rule:nonzero;stroke:none"
             d="m 6921.97,1508.79 0,-146.44 568.13,-68.55 259.65,148 0,417.38 -636.06,-269.25 -191.72,-81.14" /></g></g></g></g></svg>